<?xml version="1.0" encoding="UTF-8"?>
<svg id="Capa_1" data-name="Capa 1" xmlns="http://www.w3.org/2000/svg" xmlns:xlink="http://www.w3.org/1999/xlink" viewBox="0 0 1919.64 517.15">
  <defs>
    <linearGradient id="Degradado_sin_nombre_121" data-name="Degradado sin nombre 121" x1="522.21" y1="-46.11" x2="704.5" y2="361.7" gradientUnits="userSpaceOnUse">
      <stop offset=".19" stop-color="#e3097e"/>
      <stop offset=".28" stop-color="#a33188"/>
      <stop offset=".36" stop-color="#6e5390"/>
      <stop offset=".43" stop-color="#4d6896"/>
      <stop offset=".46" stop-color="#417098"/>
      <stop offset=".59" stop-color="#38789d"/>
      <stop offset=".79" stop-color="#1f8fac"/>
      <stop offset="1" stop-color="#00adc1"/>
    </linearGradient>
  </defs>
  <g>
    <path d="M961.38,197.5v22c-4.18.68-8.02,1.03-11.56,1.03-8.87,0-15.51-1.92-19.9-5.78-4.4-3.85-6.6-9.77-6.63-17.75,0-7.9,2.25-13.84,6.74-17.85,4.49-4,11.02-6,19.61-6,3.65,0,7.13.39,10.43,1.16v8.37c-3.26-.75-6.43-1.12-9.52-1.12-3.84.02-6.97.55-9.4,1.6-2.42,1.04-4.22,2.7-5.4,4.98-1.18,2.28-1.77,5.28-1.77,8.99,0,5.21,1.23,9.02,3.7,11.42,2.46,2.41,6.25,3.61,11.37,3.61.64,0,1.6-.02,2.85-.06v-14.6h9.49Z" style="fill: #616161;"/>
    <path d="M978.22,217.99c-3.27-1.74-5.8-4.38-7.58-7.92-1.78-3.54-2.68-7.94-2.68-13.19s.89-9.65,2.68-13.19c1.78-3.54,4.31-6.19,7.58-7.93,3.27-1.74,7.14-2.61,11.64-2.61s8.37.88,11.63,2.63c3.27,1.75,5.79,4.4,7.57,7.94,1.77,3.54,2.66,7.93,2.66,13.16s-.89,9.61-2.68,13.15c-1.78,3.54-4.31,6.19-7.58,7.94-3.27,1.75-7.13,2.62-11.6,2.62s-8.37-.87-11.64-2.61M998.31,208.72c1.94-2.43,2.91-6.31,2.91-11.63s-.98-9.5-2.93-11.98c-1.95-2.49-4.76-3.74-8.44-3.74s-6.52,1.22-8.47,3.66c-1.95,2.43-2.93,6.31-2.93,11.62s.97,9.52,2.91,12c1.94,2.48,4.77,3.72,8.49,3.72s6.51-1.22,8.45-3.66" style="fill: #616161;"/>
    <path d="M1052.12,199.77c1.52,1.84,2.29,4.27,2.29,7.27s-.76,5.44-2.27,7.42c-1.51,1.99-3.95,3.5-7.32,4.53-3.36,1.03-7.79,1.54-13.28,1.54-1.96,0-4.14-.08-6.53-.25-2.39-.17-4.57-.39-6.53-.66v-44.85c2.19-.48,4.6-.86,7.24-1.16,2.63-.29,5.17-.44,7.64-.44,6.85,0,11.86,1.06,15.02,3.17,3.16,2.12,4.74,5.35,4.74,9.7,0,2.46-.64,4.58-1.94,6.38-1.3,1.79-3.11,3.02-5.45,3.69,2.73.59,4.86,1.8,6.39,3.64M1028.47,181.16v11.41h6.58c3.05,0,5.23-.49,6.53-1.45,1.3-.97,1.96-2.47,1.96-4.52,0-1.41-.3-2.56-.88-3.43-.59-.88-1.53-1.52-2.82-1.94-1.3-.41-3.03-.62-5.2-.62s-4.15.19-6.17.56M1040.61,212.39c1.56-.47,2.67-1.17,3.33-2.11.67-.94,1-2.16,1-3.66,0-2.25-.69-3.88-2.08-4.9-1.39-1.02-3.66-1.53-6.81-1.53h-7.58v12.66c1.57.16,3.49.25,5.77.25,2.69,0,4.82-.24,6.37-.7" style="fill: #616161;"/>
    <rect x="1060.23" y="173.75" width="10.21" height="46.26" style="fill: #616161;"/>
    <polygon points="1088.86 211.88 1111.69 211.88 1111.69 220 1078.77 220 1078.77 173.75 1111.38 173.75 1111.38 181.87 1088.86 181.87 1088.86 192.28 1108.18 192.28 1108.18 200.41 1088.86 200.41 1088.86 211.88" style="fill: #616161;"/>
    <path d="M1145.39,220.01l-11.84-16.97h-.57c-1.46,0-3.08-.05-4.86-.16v17.13h-10.05v-45.22c2.21-.48,4.58-.86,7.08-1.16,2.5-.29,4.98-.44,7.42-.44,6.71,0,11.73,1.21,15.07,3.64,3.34,2.43,5.01,6.16,5.01,11.2,0,3.29-.79,6.06-2.4,8.31-1.59,2.25-3.9,3.94-6.91,5.06l13.15,18.6h-11.12ZM1128.13,195.19c1.76.19,3.44.28,5.04.28,3.38,0,5.88-.58,7.48-1.75,1.61-1.17,2.41-3.05,2.41-5.65s-.76-4.44-2.3-5.61c-1.53-1.18-3.92-1.76-7.16-1.76-1.84,0-3.66.15-5.48.47v14.03Z" style="fill: #616161;"/>
    <polygon points="1191.65 173.75 1201.26 173.75 1201.26 220.01 1190.99 220.01 1170.85 189.04 1170.85 220.01 1161.23 220.01 1161.23 173.75 1171.51 173.75 1191.65 204.72 1191.65 173.75" style="fill: #616161;"/>
    <path d="M1218.29,217.99c-3.26-1.74-5.8-4.38-7.58-7.92-1.78-3.54-2.68-7.94-2.68-13.19s.89-9.65,2.68-13.19c1.78-3.54,4.31-6.19,7.58-7.93,3.27-1.74,7.15-2.61,11.64-2.61s8.37.88,11.64,2.63c3.27,1.75,5.79,4.4,7.57,7.94,1.77,3.54,2.66,7.93,2.66,13.16s-.89,9.61-2.68,13.15c-1.78,3.54-4.31,6.19-7.58,7.94-3.27,1.75-7.13,2.62-11.6,2.62s-8.37-.87-11.64-2.61M1238.38,208.72c1.94-2.43,2.91-6.31,2.91-11.63s-.98-9.5-2.93-11.98c-1.95-2.49-4.76-3.74-8.44-3.74s-6.52,1.22-8.47,3.66c-1.95,2.43-2.93,6.31-2.93,11.62s.97,9.52,2.91,12c1.94,2.48,4.77,3.72,8.49,3.72s6.52-1.22,8.46-3.66" style="fill: #616161;"/>
    <path d="M1274.3,219.72v-44.94c2.17-.48,4.56-.85,7.15-1.12,2.6-.27,5.13-.41,7.57-.41,8.5,0,14.88,1.94,19.14,5.8,4.26,3.87,6.39,9.81,6.39,17.83,0,5.5-1.01,10-3.04,13.47-2.03,3.48-5.06,6.04-9.12,7.67-4.05,1.64-9.19,2.45-15.41,2.45-4.43,0-8.66-.25-12.69-.75M1297.76,210.66c2.11-1.02,3.68-2.66,4.73-4.91,1.05-2.25,1.57-5.22,1.57-8.9s-.52-6.6-1.58-8.86c-1.05-2.26-2.63-3.91-4.74-4.95-2.11-1.04-4.78-1.56-8.02-1.56-1.65,0-3.39.16-5.2.47v30.03c1.34.15,3.05.22,5.14.22,3.3,0,6.01-.51,8.11-1.53" style="fill: #616161;"/>
    <polygon points="1331.4 211.88 1354.23 211.88 1354.23 220 1321.32 220 1321.32 173.75 1353.92 173.75 1353.92 181.87 1331.4 181.87 1331.4 192.28 1350.73 192.28 1350.73 200.41 1331.4 200.41 1331.4 211.88" style="fill: #616161;"/>
    <polygon points="1376.38 220.01 1376.38 173.75 1386.59 173.75 1386.59 211.54 1407.89 211.54 1407.89 220.01 1376.38 220.01" style="fill: #616161;"/>
    <path d="M1443.43,220.01l-3.82-12.35h-17.2l-3.82,12.35h-9.96l14.97-46.26h14.91l14.97,46.26h-10.06ZM1424.89,199.57h12.22l-6.1-19.72-6.11,19.72Z" style="fill: #616161;"/>
    <path d="M1473.84,174.57c4.74-.92,9.42-1.38,14.03-1.38,6.98,0,12.18,1.35,15.61,4.07,3.44,2.71,5.15,6.93,5.15,12.66s-1.69,9.66-5.07,12.47c-3.38,2.81-8.39,4.22-15.04,4.22-.93,0-2.43-.04-4.47-.12v13.54h-10.21v-45.44ZM1496.3,196.85c1.61-1.42,2.41-3.71,2.41-6.88s-.81-5.51-2.41-6.97c-1.61-1.46-4.11-2.19-7.48-2.19-1.71,0-3.3.13-4.76.38v17.5c1.52.19,3.05.28,4.57.28,3.51,0,6.07-.71,7.67-2.13" style="fill: #616161;"/>
    <path d="M1542.44,220.01l-11.84-16.97h-.57c-1.46,0-3.08-.05-4.86-.16v17.13h-10.05v-45.22c2.21-.48,4.58-.86,7.08-1.16,2.5-.29,4.98-.44,7.42-.44,6.71,0,11.73,1.21,15.07,3.64,3.34,2.43,5.01,6.16,5.01,11.2,0,3.29-.79,6.06-2.4,8.31-1.59,2.25-3.9,3.94-6.91,5.06l13.15,18.6h-11.12ZM1525.18,195.19c1.76.19,3.44.28,5.04.28,3.38,0,5.88-.58,7.48-1.75,1.61-1.17,2.41-3.05,2.41-5.65s-.76-4.44-2.3-5.61c-1.53-1.18-3.92-1.76-7.16-1.76-1.84,0-3.66.15-5.48.47v14.03Z" style="fill: #616161;"/>
    <path d="M1564.78,217.99c-3.27-1.74-5.8-4.38-7.58-7.92-1.78-3.54-2.67-7.94-2.67-13.19s.89-9.65,2.67-13.19c1.78-3.54,4.31-6.19,7.58-7.93,3.27-1.74,7.14-2.61,11.64-2.61s8.37.88,11.64,2.63c3.27,1.75,5.79,4.4,7.57,7.94,1.77,3.54,2.66,7.93,2.66,13.16s-.89,9.61-2.68,13.15c-1.78,3.54-4.31,6.19-7.58,7.94-3.27,1.75-7.13,2.62-11.6,2.62s-8.37-.87-11.64-2.61M1584.88,208.72c1.94-2.43,2.91-6.31,2.91-11.63s-.98-9.5-2.93-11.98c-1.95-2.49-4.76-3.74-8.44-3.74s-6.52,1.22-8.47,3.66c-1.95,2.43-2.93,6.31-2.93,11.62s.97,9.52,2.91,12c1.94,2.48,4.77,3.72,8.49,3.72s6.52-1.22,8.46-3.66" style="fill: #616161;"/>
    <polygon points="1634.49 173.75 1644.45 173.75 1629.57 220.01 1614.47 220.01 1599.6 173.75 1610.28 173.75 1622.31 212.29 1634.49 173.75" style="fill: #616161;"/>
    <rect x="1648.64" y="173.75" width="10.21" height="46.26" style="fill: #616161;"/>
    <polygon points="1697.59 173.75 1707.21 173.75 1707.21 220.01 1696.94 220.01 1676.8 189.04 1676.8 220.01 1667.18 220.01 1667.18 173.75 1677.46 173.75 1697.59 204.72 1697.59 173.75" style="fill: #616161;"/>
    <path d="M1720.15,214.86c-4.12-3.82-6.17-9.79-6.17-17.89s2.11-13.82,6.35-17.82c4.24-4,10.37-6,18.39-6,3.57,0,6.88.37,9.93,1.1v8.38c-3.03-.71-6.08-1.06-9.14-1.06-3.39,0-6.16.52-8.33,1.56-2.17,1.04-3.79,2.68-4.87,4.92-1.07,2.24-1.61,5.17-1.61,8.8s.53,6.69,1.59,8.94c1.07,2.25,2.65,3.88,4.76,4.89,2.11,1.01,4.81,1.51,8.11,1.51,2.96,0,6.12-.49,9.49-1.47v8.4c-1.51.46-3.16.82-4.96,1.08-1.81.26-3.63.39-5.47.39-7.93,0-13.96-1.91-18.07-5.74" style="fill: #616161;"/>
    <rect x="1754.31" y="173.75" width="10.21" height="46.26" style="fill: #616161;"/>
    <path d="M1803.92,220.01l-3.82-12.35h-17.2l-3.82,12.35h-9.96l14.97-46.26h14.91l14.97,46.26h-10.06ZM1785.39,199.57h12.21l-6.1-19.72-6.11,19.72Z" style="fill: #616161;"/>
    <path d="M1834.34,219.72v-44.94c2.17-.48,4.56-.85,7.15-1.12,2.6-.27,5.13-.41,7.57-.41,8.49,0,14.87,1.94,19.14,5.8,4.26,3.87,6.39,9.81,6.39,17.83,0,5.5-1.01,10-3.04,13.47-2.03,3.48-5.06,6.04-9.12,7.67-4.05,1.64-9.19,2.45-15.41,2.45-4.42,0-8.65-.25-12.68-.75M1857.8,210.66c2.1-1.02,3.68-2.66,4.73-4.91,1.04-2.25,1.57-5.22,1.57-8.9s-.52-6.6-1.58-8.86c-1.06-2.26-2.63-3.91-4.75-4.95-2.11-1.04-4.77-1.56-8.02-1.56-1.65,0-3.39.16-5.2.47v30.03c1.34.15,3.05.22,5.13.22,3.31,0,6.01-.51,8.12-1.53" style="fill: #616161;"/>
    <polygon points="1891.44 211.88 1914.26 211.88 1914.26 220 1881.35 220 1881.35 173.75 1913.95 173.75 1913.95 181.87 1891.44 181.87 1891.44 192.28 1910.76 192.28 1910.76 200.41 1891.44 200.41 1891.44 211.88" style="fill: #616161;"/>
    <path d="M998.98,301.97c3.34,4.04,5.01,9.35,5.01,15.91s-1.66,11.9-4.97,16.25c-3.32,4.35-8.65,7.66-16.02,9.93-7.36,2.25-17.05,3.39-29.07,3.39-4.3,0-9.07-.19-14.3-.54-5.24-.37-10-.85-14.3-1.44v-98.2c4.8-1.04,10.08-1.89,15.84-2.53,5.76-.64,11.34-.95,16.74-.95,14.99,0,25.95,2.32,32.88,6.95,6.93,4.63,10.39,11.71,10.39,21.24,0,5.39-1.42,10.04-4.25,13.96-2.83,3.92-6.81,6.62-11.93,8.07,5.99,1.28,10.66,3.93,13.99,7.97M947.2,261.22v24.97h14.4c6.68,0,11.44-1.06,14.3-3.18,2.86-2.12,4.28-5.42,4.28-9.89,0-3.1-.64-5.61-1.92-7.53-1.28-1.92-3.34-3.33-6.17-4.24-2.83-.91-6.63-1.37-11.38-1.37s-9.08.41-13.51,1.23M973.78,329.62c3.4-1.03,5.84-2.57,7.3-4.62,1.47-2.05,2.19-4.72,2.19-8.01,0-4.92-1.52-8.5-4.56-10.74-3.04-2.23-8.01-3.35-14.92-3.35h-16.6v27.71c3.43.37,7.63.55,12.62.55,5.9,0,10.55-.51,13.96-1.54" style="fill: #00adc1;"/>
    <path d="M1026.65,336.94c-6.93-7.09-10.39-17.98-10.39-32.68v-59.26h22.42v61.45c0,7.93,1.67,13.73,5.01,17.38,3.34,3.65,8.48,5.48,15.43,5.48s12.09-1.82,15.43-5.48c3.34-3.65,5-9.44,5-17.38v-61.45h22.02v59.26c0,14.69-3.43,25.58-10.29,32.68-6.86,7.1-17.58,10.64-32.16,10.64s-25.54-3.55-32.47-10.64" style="fill: #00adc1;"/>
    <polygon points="1141.42 328.49 1191.41 328.49 1191.41 346.28 1119.33 346.28 1119.33 245 1190.72 245 1190.72 262.79 1141.42 262.79 1141.42 285.58 1183.73 285.58 1183.73 303.37 1141.42 303.37 1141.42 328.49" style="fill: #00adc1;"/>
    <polygon points="1271.99 245 1293.04 245 1293.04 346.28 1270.55 346.28 1226.45 278.47 1226.45 346.28 1205.4 346.28 1205.4 245 1227.89 245 1271.99 312.82 1271.99 245" style="fill: #00adc1;"/>
    <path d="M1330.31,341.86c-7.16-3.81-12.69-9.59-16.6-17.34-3.91-7.76-5.86-17.38-5.86-28.88s1.95-21.12,5.86-28.88c3.91-7.75,9.44-13.54,16.6-17.35,7.16-3.81,15.64-5.71,25.48-5.71s18.32,1.92,25.47,5.75c7.16,3.83,12.68,9.63,16.56,17.38,3.89,7.76,5.83,17.36,5.83,28.81s-1.95,21.05-5.87,28.81c-3.91,7.76-9.44,13.55-16.6,17.38-7.15,3.83-15.62,5.75-25.4,5.75s-18.32-1.91-25.48-5.72M1374.3,321.58c4.25-5.34,6.38-13.82,6.38-25.45s-2.14-20.79-6.42-26.25c-4.28-5.45-10.44-8.17-18.48-8.17s-14.28,2.67-18.55,8c-4.28,5.34-6.41,13.83-6.41,25.46s2.12,20.85,6.38,26.28c4.25,5.43,10.44,8.15,18.58,8.15s14.26-2.67,18.51-8.01" style="fill: #00adc1;"/>
    <path d="M1429.14,346.45c-4.92-.75-9.45-1.82-13.61-3.18v-18.07c4.25,1.37,8.92,2.46,14.02,3.25,5.1.8,9.86,1.2,14.3,1.2,6.54,0,11.27-.99,14.2-2.98,2.93-1.99,4.39-4.91,4.39-8.79,0-2.15-.45-3.94-1.34-5.37-.89-1.44-2.39-2.69-4.49-3.76-2.1-1.08-5.05-2.11-8.84-3.12l-7.61-1.98c-9.06-2.24-15.82-5.74-20.3-10.51-4.48-4.76-6.72-10.98-6.72-18.64,0-9.81,3.56-17.39,10.69-22.76,7.14-5.36,17.67-8.04,31.62-8.04,4.44,0,8.72.26,12.86.79,4.14.52,7.88,1.24,11.21,2.15v18.13c-3.25-1.01-6.87-1.78-10.87-2.33-4-.54-7.99-.82-11.97-.82-7.59,0-13.03,1.01-16.32,3.04-3.29,2.03-4.94,4.92-4.94,8.66,0,2.05.39,3.76,1.17,5.13.78,1.37,2.09,2.55,3.94,3.56,1.85,1,4.45,1.96,7.78,2.88l7.68,1.91c9.88,2.46,17.13,6.07,21.77,10.82,4.64,4.74,6.96,10.99,6.96,18.75,0,6.43-1.62,12-4.87,16.7-3.25,4.7-7.92,8.29-14.02,10.78-6.1,2.48-13.41,3.73-21.91,3.73-4.94,0-9.87-.38-14.78-1.13" style="fill: #00adc1;"/>
    <path d="M1600.13,346.28l-8.37-27.03h-37.64l-8.37,27.03h-21.81l32.78-101.28h32.64l32.78,101.28h-22.02ZM1559.53,301.53h26.75l-13.37-43.18-13.37,43.18Z" style="fill: #00adc1;"/>
    <rect x="1632.23" y="245" width="22.36" height="101.28" style="fill: #00adc1;"/>
    <path d="M1732.63,346.28l-25.93-37.16h-1.23c-3.2,0-6.75-.11-10.63-.34v37.5h-22.01v-99.02c4.84-1.05,10.01-1.9,15.5-2.53,5.49-.64,10.91-.95,16.25-.95,14.67,0,25.67,2.66,32.98,7.97,7.32,5.32,10.97,13.49,10.97,24.53,0,7.21-1.75,13.27-5.24,18.2-3.5,4.93-8.54,8.63-15.12,11.09l28.8,40.72h-24.35ZM1694.84,291.95c3.84.41,7.52.62,11.04.62,7.41,0,12.87-1.28,16.39-3.83,3.52-2.55,5.28-6.68,5.28-12.39s-1.68-9.7-5.05-12.28c-3.36-2.58-8.58-3.87-15.67-3.87-4.02,0-8.02.34-12,1.03v30.72Z" style="fill: #00adc1;"/>
    <polygon points="1789.41 328.49 1839.4 328.49 1839.4 346.28 1767.33 346.28 1767.33 245 1838.71 245 1838.71 262.79 1789.41 262.79 1789.41 285.58 1831.72 285.58 1831.72 303.37 1789.41 303.37 1789.41 328.49" style="fill: #00adc1;"/>
    <path d="M1864.06,346.45c-4.92-.75-9.45-1.82-13.61-3.18v-18.07c4.25,1.37,8.92,2.46,14.03,3.25,5.09.8,9.86,1.2,14.3,1.2,6.54,0,11.27-.99,14.2-2.98,2.93-1.99,4.39-4.91,4.39-8.79,0-2.15-.45-3.94-1.34-5.37-.89-1.44-2.39-2.69-4.49-3.76-2.1-1.08-5.05-2.11-8.84-3.12l-7.61-1.98c-9.05-2.24-15.82-5.74-20.3-10.51-4.48-4.76-6.72-10.98-6.72-18.64,0-9.81,3.56-17.39,10.7-22.76,7.13-5.36,17.67-8.04,31.61-8.04,4.44,0,8.72.26,12.86.79,4.13.52,7.88,1.24,11.21,2.15v18.13c-3.25-1.01-6.87-1.78-10.87-2.33-4-.54-7.99-.82-11.97-.82-7.59,0-13.03,1.01-16.32,3.04-3.29,2.03-4.94,4.92-4.94,8.66,0,2.05.39,3.76,1.17,5.13.78,1.37,2.09,2.55,3.94,3.56,1.85,1,4.45,1.96,7.78,2.88l7.68,1.91c9.88,2.46,17.13,6.07,21.77,10.82,4.64,4.74,6.96,10.99,6.96,18.75,0,6.43-1.62,12-4.87,16.7-3.25,4.7-7.92,8.29-14.02,10.78-6.1,2.48-13.41,3.73-21.91,3.73-4.94,0-9.87-.38-14.78-1.13" style="fill: #00adc1;"/>
  </g>
  <g>
    <path d="M33.58,208.03h11.04v41.15h-8.48v-29.11l-10.09,23.16h-7.48l-10.09-22.41v28.36H0v-41.15h11.04l11.42,25.91,11.12-25.91Z" style="fill: #00adc1;"/>
    <path d="M52.12,249.17v-41.15h9.06v41.15h-9.06Z" style="fill: #00adc1;"/>
    <path d="M95.58,208.03h8.53v41.15h-9.12l-17.88-27.55v27.55h-8.53v-41.15h9.12l17.88,27.55v-27.55Z" style="fill: #00adc1;"/>
    <path d="M111.5,249.17v-41.15h9.06v41.15h-9.06Z" style="fill: #00adc1;"/>
    <path d="M132.28,249.24c-2-.3-3.83-.73-5.52-1.29v-7.34c1.72.56,3.62,1,5.68,1.32,2.07.33,4,.49,5.8.49,2.65,0,4.57-.4,5.76-1.21s1.78-2,1.78-3.58c0-.87-.18-1.6-.54-2.18s-.97-1.09-1.82-1.53c-.85-.43-2.05-.86-3.58-1.27l-3.09-.81c-3.67-.9-6.42-2.33-8.23-4.27-1.81-1.94-2.72-4.46-2.72-7.57,0-3.99,1.44-7.07,4.33-9.24s7.16-3.27,12.82-3.27c1.8,0,3.53.11,5.21.32,1.67.21,3.19.5,4.54.87v7.37c-1.32-.41-2.78-.72-4.41-.94-1.62-.23-3.24-.33-4.85-.33-3.08,0-5.28.41-6.62,1.24-1.33.83-2,2-2,3.52,0,.84.15,1.53.47,2.09s.85,1.04,1.6,1.45c.75.41,1.81.8,3.16,1.17l3.11.78c4,1,6.95,2.47,8.83,4.39,1.88,1.93,2.82,4.47,2.82,7.62,0,2.62-.66,4.88-1.97,6.78-1.32,1.91-3.21,3.37-5.68,4.38-2.48,1.01-5.44,1.52-8.88,1.52-2,0-4-.15-5.99-.46Z" style="fill: #00adc1;"/>
    <path d="M167.85,249.17v-33.61h-12.98v-7.53h35.03v7.53h-12.95v33.61h-9.09Z" style="fill: #00adc1;"/>
    <path d="M202.94,241.95h20.26v7.23h-29.22v-41.15h28.94v7.23h-19.99v9.26h17.15v7.23h-17.15v10.21Z" style="fill: #00adc1;"/>
    <path d="M253.12,249.17l-10.51-15.1h-.5c-1.3,0-2.74-.05-4.31-.14v15.24h-8.92v-40.23c1.96-.43,4.06-.77,6.28-1.03,2.22-.26,4.42-.39,6.59-.39,5.95,0,10.41,1.08,13.37,3.24,2.96,2.16,4.45,5.48,4.45,9.97,0,2.93-.71,5.39-2.13,7.39-1.42,2-3.46,3.5-6.13,4.5l11.68,16.54h-9.87ZM237.8,227.1c1.56.17,3.05.25,4.48.25,3,0,5.22-.52,6.64-1.56,1.43-1.04,2.14-2.71,2.14-5.03s-.68-3.95-2.05-4.99c-1.36-1.05-3.48-1.57-6.35-1.57-1.63,0-3.25.14-4.87.42v12.48Z" style="fill: #00adc1;"/>
    <path d="M267.18,249.17v-41.15h9.06v41.15h-9.06Z" style="fill: #00adc1;"/>
    <path d="M291.35,247.38c-2.9-1.55-5.14-3.9-6.73-7.05-1.58-3.15-2.38-7.06-2.38-11.73s.79-8.58,2.38-11.73c1.58-3.15,3.83-5.5,6.73-7.05,2.9-1.55,6.34-2.32,10.33-2.32s7.43.78,10.33,2.33,5.14,3.91,6.71,7.06c1.57,3.15,2.36,7.05,2.36,11.7s-.79,8.56-2.38,11.71c-1.58,3.15-3.83,5.51-6.73,7.06s-6.33,2.33-10.3,2.33-7.43-.77-10.33-2.32ZM309.18,239.14c1.72-2.17,2.59-5.62,2.59-10.35s-.87-8.44-2.6-10.66c-1.73-2.21-4.23-3.32-7.49-3.32s-5.78,1.09-7.52,3.25c-1.73,2.17-2.6,5.62-2.6,10.34s.86,8.47,2.59,10.68c1.72,2.2,4.23,3.31,7.53,3.31s5.78-1.09,7.5-3.25Z" style="fill: #00adc1;"/>
    <path d="M341.07,248.92v-39.98c1.93-.43,4.05-.76,6.35-1,2.31-.24,4.55-.36,6.71-.36,7.54,0,13.2,1.72,16.99,5.15,3.78,3.44,5.67,8.73,5.67,15.86,0,4.9-.9,8.89-2.7,11.99-1.8,3.09-4.49,5.37-8.09,6.82-3.59,1.45-8.15,2.18-13.68,2.18-3.93,0-7.68-.22-11.26-.67ZM361.89,240.86c1.87-.91,3.27-2.36,4.2-4.37.93-2,1.39-4.64,1.39-7.92s-.47-5.87-1.4-7.88c-.94-2.01-2.34-3.47-4.21-4.4s-4.24-1.39-7.12-1.39c-1.47,0-3,.14-4.62.42v26.72c1.19.13,2.71.19,4.56.19,2.93,0,5.33-.45,7.2-1.36Z" style="fill: #00adc1;"/>
    <path d="M391.75,241.95h20.26v7.23h-29.22v-41.15h28.94v7.23h-19.99v9.26h17.15v7.23h-17.15v10.21Z" style="fill: #00adc1;"/>
    <path d="M235,309.58c-2-.3-3.83-.73-5.52-1.29v-7.34c1.72.56,3.62,1,5.68,1.32,2.07.33,4,.49,5.8.49,2.65,0,4.57-.4,5.76-1.21s1.78-2,1.78-3.57c0-.87-.18-1.6-.54-2.18s-.97-1.09-1.82-1.53c-.85-.43-2.05-.86-3.58-1.27l-3.09-.81c-3.67-.9-6.42-2.33-8.23-4.27-1.81-1.94-2.72-4.46-2.72-7.57,0-3.99,1.44-7.07,4.33-9.24,2.89-2.18,7.16-3.27,12.82-3.27,1.8,0,3.53.11,5.21.32,1.67.21,3.19.5,4.54.87v7.37c-1.32-.41-2.78-.72-4.41-.94-1.62-.23-3.24-.33-4.85-.33-3.08,0-5.28.41-6.62,1.24-1.33.83-2,2-2,3.52,0,.84.15,1.53.47,2.09.32.56.85,1.04,1.6,1.45.75.41,1.81.8,3.16,1.17l3.11.78c4,1,6.95,2.47,8.83,4.39,1.88,1.93,2.82,4.47,2.82,7.62,0,2.62-.66,4.87-1.97,6.78s-3.21,3.37-5.68,4.38c-2.48,1.01-5.44,1.52-8.88,1.52-2,0-4-.15-5.99-.46Z" style="fill: #00adc1;"/>
    <path d="M290.34,309.51l-3.39-10.98h-15.26l-3.39,10.98h-8.84l13.29-41.14h13.23l13.29,41.14h-8.92ZM273.88,291.33h10.84l-5.42-17.54-5.42,17.54Z" style="fill: #00adc1;"/>
    <path d="M303.34,309.51v-41.14h9.06v33.61h18.9v7.53h-27.97Z" style="fill: #00adc1;"/>
    <path d="M338.39,305.72c-2.81-2.88-4.21-7.3-4.21-13.27v-24.08h9.09v24.96c0,3.23.68,5.58,2.03,7.06,1.35,1.48,3.43,2.22,6.25,2.22s4.9-.74,6.26-2.22c1.35-1.48,2.03-3.84,2.03-7.06v-24.96h8.92v24.08c0,5.97-1.39,10.39-4.17,13.27-2.78,2.88-7.13,4.33-13.04,4.33s-10.35-1.44-13.16-4.33Z" style="fill: #00adc1;"/>
    <path d="M375.96,309.26v-39.98c1.93-.43,4.05-.76,6.35-1,2.31-.24,4.55-.36,6.71-.36,7.54,0,13.2,1.72,16.99,5.15,3.78,3.44,5.67,8.73,5.67,15.86,0,4.9-.9,8.89-2.7,11.99-1.8,3.09-4.49,5.37-8.09,6.82-3.59,1.45-8.15,2.18-13.68,2.18-3.93,0-7.68-.22-11.26-.67ZM396.78,301.2c1.87-.91,3.27-2.36,4.2-4.37.93-2,1.39-4.64,1.39-7.92s-.47-5.87-1.4-7.88c-.94-2.01-2.34-3.47-4.21-4.4-1.87-.93-4.24-1.39-7.12-1.39-1.47,0-3,.14-4.62.42v26.71c1.19.13,2.71.19,4.56.19,2.93,0,5.33-.45,7.2-1.36Z" style="fill: #00adc1;"/>
  </g>
  <path d="M674.05,67.47h15.28v-5.66h-15.28v5.66ZM671.95,26.27h-5.66v5.66h5.66v-5.66ZM638.93,19.01l17.13-12.4v11.11c0,.71.34,1.39.92,1.81l.12-.1-.05.19c.78.56,1.83.56,2.61,0l.86-.63v.02l17.13-12.4v11.11c0,.71.34,1.39.92,1.81l.12-.1-.05.19c.78.56,1.83.56,2.61,0l.86-.63v.02l17.13-12.4v5.83h4.46V2.32c0-.71-.35-1.39-.92-1.8l-.02.02.03-.11c-.78-.56-1.83-.56-2.61,0l-.86.63v-.02l-17.2,12.46V2.32c0-.71-.34-1.39-.92-1.8l-.02.02.03-.11c-.78-.56-1.83-.56-2.61,0l-.86.63v-.02l-17.2,12.46V2.32c0-.71-.34-1.39-.92-1.8l-.02.02.03-.11c-.78-.56-1.83-.56-2.61,0l-21.6,15.64c-.58.42-.92,1.09-.92,1.8v25c1.5,1.03,2.98,2.08,4.46,3.16v-27.02ZM689.33,52.33h-15.28v5.66h15.28v-5.66ZM650.74,31.94v-5.66h-5.66v5.66h5.66ZM791.42,91.71h-5.66v5.66h5.66v-5.66ZM717.63,26.86h-5.92c-.43,0-.77.35-.77.77v5.14h-5.14c-.43,0-.77.35-.77.77v5.92c0,.43.35.77.77.77h5.14v5.14c0,.43.35.77.77.77h5.92c.43,0,.77-.35.77-.77v-5.14h5.14c.43,0,.77-.35.77-.77v-5.92c0-.43-.35-.77-.77-.77h-5.14v-5.14c0-.43-.35-.77-.77-.77ZM693.13,17.74v25.33h-25.33c-1.35,0-2.44,1.1-2.44,2.44v20.36c1.61,1.07,3.23,2.12,4.89,3.12v-21.04h22.88v30.9c1.59.36,3.22.64,4.89.83V20.18h33.3v51.8l4.89-3.54v-20.49h22.88v9.78l1.03.72c.91-1.2,2.29-2.03,3.85-2.24v-10.71c0-1.35-1.1-2.44-2.44-2.44h-25.33v-25.33c0-1.35-1.1-2.44-2.44-2.44h-38.18c-1.35,0-2.44,1.1-2.44,2.44ZM840.5,177.31c4.11,22.7,26.06,35.49,27.56,36.35.41.25,2.72,1.61,6.07,3.14-1.79-2.9-3.19-6.06-4.13-9.42-4.5-2.87-20.11-13.96-23.23-31.2-2.07-11.44,1.76-23.52,11.38-35.95.09-.89.13-1.79.13-2.7,0-2.17-.25-4.27-.71-6.29-1.03.99-1.64,1.63-1.71,1.71-.04.04-.07.08-.11.12-12.71,15.02-17.84,29.9-15.24,44.23ZM618.22,58.49l2.45,1.42,2.84-4.9-2.45-1.42c-2.54-1.47-5.13-2.84-7.68-4.08l-2.55-1.23-2.46,5.1,2.55,1.23c2.43,1.18,4.89,2.48,7.31,3.88ZM722.82,77.05v-12.11h3.26v-3.26h-22.83v3.26h3.26v15c1.07-.05,2.16-.14,3.26-.25v-14.75h9.79v12.99c1.07-.27,2.16-.56,3.26-.88ZM718.14,174.45h-5.66v5.66h5.66v-5.66ZM778.91,183.93h-5.66v5.66h5.66v-5.66ZM778.91,174.45h-5.66v5.66h5.66v-5.66ZM718.14,183.93h-5.66v5.66h5.66v-5.66ZM511.73,154.22v-19.65l11.8,11.69,4.71-1.96v-56.16l12.19-6.57c-1.39,2.73-2.43,5.57-3.08,8.55-3.4,15.52,4.75,28.45,5.1,28.99l.1-.06c.18,3.51,1.63,6.88,4.04,9.56l1.66,1.85c.83.92,2.01.98,2.96.13l1.57-1.41,2.77,3.08c.83.92,2.01.98,2.96.13,1.73-1.55,4.39-1.44,5.91.26,1.52,1.69,1.35,4.35-.38,5.91-1.73,1.55-4.39,1.44-5.91-.26-.83-.92-2.01-.98-2.96-.13-.94.85-1.02,2.03-.19,2.95,3.04,3.39,8.37,3.62,11.83.51,3.46-3.11,3.8-8.42.76-11.81-2.57-2.86-6.75-3.46-10.07-1.72l-1.57-1.75,1.57-1.41c.94-.85,1.02-2.03.19-2.95l-1.66-1.85c-2.13-2.37-4.79-3.96-7.8-4.72l.22-.14c-.66-1.03-15.02-24.37,9.26-43.01l6.96-3.75-1.34-5.2-35.07.4v-8.18l-2.77-2.77h-16.52l-2.77,2.77v102.4l3.38-2.44,2.15-1.27ZM552.88,122.96l.28.31-3.15,2.82-.28-.31c-1.66-1.85-2.71-3.97-2.99-6.5,2.48.55,4.48,1.82,6.14,3.67ZM550.48,68.98c-.79.69-1.54,1.39-2.26,2.1l-6.72,3.63-7.63-5.54,16.62-.19ZM528.24,71.92l7.85,5.7-7.85,4.24v-9.94ZM522.71,137.66l-9.78-9.68,9.78-9.32v19ZM522.71,106.7l-9.25-6.89,9.25-7.51v14.4ZM522.71,66.49v14.17l-9.61-7.84,9.61-9.47v3.14ZM511.73,58.29h8.25l-8.25,8.13v-8.13ZM511.73,78.84l9.37,7.64-9.37,7.61v-15.26ZM511.73,105.41l9.47,7.05-9.47,9.02v-16.08ZM608.32,72.07h-19.57c-1.31,0-2.38,1.07-2.38,2.38v3.41h-9.66c-3.42,0-6.21,2.77-6.24,6.18l-.89,10.59-2.28,2.28c-1.58,1.58-1.66,4.09-1.66,4.58v11.59c0,1.31,1.07,2.38,2.38,2.38h1.85c1.03,3.38,4.2,5.8,7.81,5.8,4.51,0,8.18-3.67,8.18-8.18s-3.67-8.18-8.18-8.18c-3.12,0-5.91,1.81-7.28,4.47v-3.58h.97c1.31,0,2.38-1.07,2.38-2.38s-1.07-2.38-2.38-2.38h-.92c.05-.32.14-.66.22-.77l2.2-2.2h13.5v15.01c0,1.31,1.07,2.38,2.38,2.38h2.92c2.39-1.7,4.9-3.27,7.52-4.7.04-.02.08-.04.11-.06h-8.17v-4.9h19.01c5.56-2.07,11.52-3.66,17.84-4.76h-36.84v-24.21h24.81c-2.43-1.61-4.98-3.21-7.63-4.76ZM577.68,109.67c1.88,0,3.41,1.53,3.41,3.41s-1.53,3.41-3.41,3.41-3.41-1.53-3.41-3.41,1.53-3.41,3.41-3.41ZM586.38,93.32h-11.9s.75-9.01.75-9.01v-.12c0-.85.69-1.56,1.49-1.56h9.66v10.69ZM621.01,80.28h-2.85s-.01,17.55-.01,17.55h4.39s.01-16.47.01-16.47c-.5-.36-1.02-.72-1.54-1.08ZM611.57,97.83v-17.55s-4.38,0-4.38,0v17.55s4.38,0,4.38,0ZM600.6,97.82v-17.55s-4.38,0-4.38,0v17.55s4.38,0,4.38,0ZM639.01,339.01l8.4-15.41-3.85-2.1-8.4,15.41,3.85,2.1ZM545.99,432.07c10.53,1.39,18.97,7.64,23.32,11.37l3.14-5.87c-4.9-4.19-11.17-9.59-23.37-11.2l-3.09,5.71ZM539.64,443.79c10.53,1.39,19.04,7.67,23.39,11.4l3.09-5.94c-4.9-4.19-10.95-10-23.15-11.61l-3.33,6.15ZM648.64,344.26l8.4-15.41-3.85-2.1-8.4,15.41,3.85,2.1ZM696.88,372.99c-2.25-.83-4.8-.93-7.16-.66-4.38.5-8.44,2.06-12.68,3.14-2.82.72-5.56,1.69-8.36,2.45-2.92.79-5.04,1.16-7.98,1.11-.66-.01-1.31-.04-1.97-.1-.3-.02-.6-.06-.91-.09-.11-.01-.23-.03-.34-.04-.05,0-.19-.03-.26-.04-1.36-.23-2.7-.52-4.02-.89-2.77-.79-4.82-1.64-7.31-2.94-2.43-1.27-4.71-2.76-6.94-4.35-2.27-1.62-4.55-3.28-7.11-4.42-2.82-1.26-5.77-2-8.86-2.15-3.03-.15-6.03.42-8.94,1.24-2.43.68-4.84,1.37-7.3,1.91-.99.22-1.99.42-2.99.6-.47.08-.94.16-1.41.24-.22.03-.43.06-.65.1-.01,0-.03,0-.06,0-.11.01-.25.03-.26.03-1.86.22-3.74.33-5.62.27-.97-.03-1.93-.11-2.89-.21-.04,0-.05,0-.07,0-.02,0-.02,0-.04,0-.22-.03-.44-.07-.65-.1-.52-.09-1.03-.19-1.55-.3-2.14-.46-4.24-1.14-6.27-1.96-.08-.03-.36-.15-.43-.18-.25-.11-.5-.22-.75-.33-.6-.27-1.2-.56-1.79-.85-1.18-.59-2.33-1.21-3.47-1.87-.79-.45-1.56-.92-2.33-1.4-.02-.02-.05-.03-.07-.05,0,0,0,0,0,0-.45-.28-.89-.56-1.34-.84-9.74-7.97-20.93-13.89-32.91-17.73-9.45-3.03-19.33-4.75-29.22-5.41-1.94-.13-3.89-.21-5.84-.25v5.66c1.42.03,2.85.08,4.27.15,1.96.11,3.92.26,5.87.45,1.1.11,2.21.24,3.31.38.24.03.48.06.72.09-.77-.1.1.01.29.04.61.09,1.21.18,1.81.27,5.01.79,9.98,1.88,14.85,3.32,2.69.79,5.36,1.69,7.98,2.7.67.26,1.33.52,1.99.79.26.11.53.22.79.33.06.02.13.05.15.06.25.11.5.22.75.32,1.35.59,2.68,1.21,4,1.86,3.08,1.52,6.08,3.2,8.97,5.04,3.17,2.02,5.95,4.04,8.66,6.29.03.03.07.05.11.07.03.03.07.05.1.08-2.25,1.91-4.34,3.9-6.27,5.99-2.39-1.31-4.86-2.52-7.37-3.66.81.26,1.56-.25,2.22-.89.64-.61,2.46-3.13,1.64-3.71-.8-.56-2.46.13-3.64.92-.16-1.24-.6-2.52-1.37-2.78-.95-.32-1.89,2.65-2,3.53-.07.57-.08,1.13.08,1.6-6.47-2.7-13.29-4.84-20.37-6.41.31-.24.59-.57.84-.92.52-.72,1.85-3.53.93-3.95-.88-.4-2.38.56-3.39,1.55-.38-1.21-1.05-2.43-1.88-2.55-1-.14-1.38,2.95-1.32,3.83.02.38.07.76.17,1.09-4.5-.82-9.09-1.42-13.74-1.78.19-.29.33-.64.46-1,.3-.84.79-3.91-.2-4.05-1.04-.15-2.34,1.45-3,2.76-.66-1.3-1.96-2.91-3-2.76-1,.14-.5,3.21-.2,4.05.08.23.17.46.28.67-.18,0-.36-.02-.54-.02-.7-.02-2.12-.04-2.82-.05l-.12,8.02h.72c.65.01,1.31.03,1.97.05,18.46.57,35.97,5.23,50.47,12.86-1.66,2.33-3.12,4.73-4.4,7.21-2.53-1.31-5.13-2.52-7.8-3.62.24-.16.48-.36.71-.58.64-.61,2.46-3.13,1.64-3.71-.8-.56-2.46.13-3.64.92-.16-1.24-.6-2.52-1.37-2.78-.95-.32-1.89,2.65-2,3.53-.03.28-.05.55-.05.82-4.28-1.52-8.72-2.76-13.26-3.73.05-.07.1-.13.15-.2.52-.72,1.85-3.53.93-3.95-.88-.4-2.38.56-3.39,1.55-.38-1.21-1.05-2.43-1.88-2.55-1-.14-1.38,2.95-1.32,3.83,0,.1.01.19.02.29-3-.48-6.04-.85-9.11-1.1.15-.26.28-.56.39-.86.3-.84.79-3.91-.2-4.05-1.04-.15-2.34,1.45-3,2.76-.66-1.3-1.96-2.91-3-2.76-1,.15-.5,3.21-.2,4.05.07.18.14.36.22.54-.66-.02-1.78-.03-2.32-.04l-.11,7.07c.57,0,1.85.02,2.42.04,26.66.84,51.05,11.64,64.91,27.9-8.08-3.63-18.17-7.09-18.6-7.24l-2.57-.88-25.82,45.5c-4.41-3.56-10.75-7.23-20.14-9.06-.16-.03-.26.24-.32.68v3.36c.04.81.1,1.48.11,1.73,7.73,1.77,13.64,4.91,18.47,9.83v.03s.05.03.05.03c0,0,.01.01.02.02h0s3.23,1.26,3.23,1.26c.14.05,13.92,5.46,18.01,7.63,4.05,2.15,15.47,10.16,15.58,10.24l2.95,2.07,27.63-51.91-1.87-1.66c-.15-.13-.14-.2-2.25-1.89l-.69-1.56c-3.52-7.27-8.7-13.95-15.27-19.8,2.71-4.26,6.1-8.23,10.06-11.84l.05-8.64c-6.48,5.06-11.29,10.07-15.58,16.03-1.67-1.24-3.42-2.43-5.24-3.57.21-.22.41-.52.58-.94.51-1.21,2.75-5.33,3.54-6.41,1.59-2.17,3.36-4.26,5.3-6.26,1.99-2.05,4.16-4,6.48-5.84,6.38,3.33,13.25,5.57,20.58,5.34,4.11-.13,8.19-.91,12.19-1.86,2.74-.65,5.41-1.58,8.16-2.16.32-.07.64-.13.96-.18-.02,0,.14-.02.24-.04.11-.01.4-.05.43-.05.68-.07,1.36-.11,2.03-.11,1.54,0,2.41.08,3.76.38,5.34,1.16,9.42,5.01,14.17,7.95,4.75,2.95,10.07,5.26,15.61,6.19,2.85.48,5.74.68,8.62.38,3.02-.32,5.93-1.07,8.83-1.95,2.48-.76,4.97-1.41,7.46-2.14,1.99-.59,3.96-1.26,5.97-1.77,1.09-.28,2.18-.48,3.28-.68,0,0,0,0,.01,0h0c.13-.01.26-.03.38-.04.26-.03.51-.05.77-.06.59-.04,1.18-.05,1.77-.03.29.01.58.05.87.06,0,0,0,0,.01,0,.07.01.14.02.21.04.56.1,1.11.25,1.65.44.08.03.16.06.24.09.03.01.05.03.09.05.22.11.43.23.65.35.37.21.72.44,1.08.67.3.19.6.38.9.58,3.22-.1,6.42-.28,9.6-.55-1.87-1.15-3.7-2.36-5.54-3.56-1.74-1.14-3.44-2.33-5.4-3.05ZM556.19,366.75c.06-.02.13-.04.19-.07.12.13.27.25.43.34-.21-.09-.41-.19-.62-.28ZM578.45,415.42c3.28,2.2,6.5,4.63,8.17,6.01l-23.13,44.32c-3.8-2.61-12.19-8.1-15.25-9.72-3.12-1.66-13.18-5.64-17.66-7.43l24.51-43.55c3.58,1.28,11.13,3.93,16.59,6.41,1.89.85,4.34,2.35,6.77,3.97ZM552.11,421.31c10.53,1.39,18.84,7.28,23.19,11l3.14-5.8c-4.9-4.19-11.11-9.7-23.31-11.31l-3.02,6.12ZM536,419.33c-2.77-2.33-8.07-5.56-14.36-8.19.06-.06.12-.11.18-.17.64-.62,2.44-3.15,1.61-3.72-.8-.55-2.44.13-3.61.92-.16-1.26-.61-2.58-1.4-2.84-.96-.31-1.88,2.66-1.98,3.54-.01.1-.02.2-.03.3-3.29-1.09-6.72-1.94-10.1-2.38l-.18,3.65v3.16c10.42,1.4,22.46,7.85,26.75,11.47l3.12-5.74ZM506.32,427.39c0,.07.83.05.9.07,8.29,2.47,15.59,7.26,19,10.17l3.07-5.74c-3.94-3.37-13.17-8.62-22.77-11.25-.45,1.5-.2,5.8-.2,6.74ZM573.34,241.03h0c19.54,4.42,43.05,19.27,53.17,31.97l6.32-2.21c-.06-.08-.11-.16-.17-.24-9.66-13.21-32.49-28.41-53.11-34.47,1.18-.69,3.24-1.92,3.63-2.27.93-.82,1.89-1.61,2.87-2.39,19.79,5.78,43.96,23.4,52.75,36.41.04.05.07.11.11.17l6.19-2.16c-.33-.53-.67-1.05-1.02-1.57-1.98-2.93-4.63-6.04-7.76-9.18,1.57-1.1,5.5-3.81,6.62-4.46,15.09-8.74,55.14-20.86,75.41-15.64.54.39,1.01.71,1.01.71,5.58,4.02,13.9,6.9,22.25,7.46.47.03.94.06,1.4.07,1.31.05,2.61.02,3.89-.05-.23.49,9.35-1.32,12.22-2.72.33-.14.67-.27,1-.43,3.57-1.42,7.2-1.74,11.56-.73,1.71.39,3.41,1.56,4.98,2.77.18.14.36.28.54.42.73.58,1.42,1.15,2.07,1.63,6.73,5.07,14.11,10.14,22.83,11.04,5.25.55,11.02.04,16.31-1.11.92-.2,1.83-.42,2.72-.65,3.06-.82,5.61-2.76,8.82-3.13,4.69-.54,11.25-1.44,16.43.35-1.18-2.42-2.35-4.88-2.56-7.42-3.88-.17-.22.03-4.52-.24-6.56-.41-11.15.15-18.28,2.97-.03.01-1.2.39-2.95.85-3.03.8-7.78,1.84-11.41,1.72-.26,0-.52-.02-.77-.04-6.39-.55-14.03-3.58-19.89-7.46-.46-.31-.92-.63-1.37-.97-2.06-1.53-4.04-3.3-6.23-4.73-1.16-.76-2.39-1.43-3.71-1.92-6.17-2.27-12.61-1.94-17.9.39-4.22,1.84-9.4,2.5-14.67,2.32-10.06-.34-21.82-8.62-21.82-8.62-7.3-6.2-16.01-11.29-25.6-15.08-.04-.02-.08-.04-.12-.05.03-.02.06-.03.09-.05,8.83-4.94,18.91-8.54,29.62-10.56,1.91-.36,3.84-.67,5.78-.92,2.25-.3,4.51-.53,6.8-.68,2.89-.19,13.11-.22,13.11-.22,2.88-.04,5.77.02,8.65.22,19.1,1.29,37.01,7.6,50.61,17.58.69-2.4,2.48-5.01,4.04-6.59-7.02-5.12-15.95-9.28-25.31-12.33l-.23-32.12c0-.78-.31-1.51-.86-2.06-.56-.55-1.27-.87-2.07-.84l-15.14.08v-1.59c-.01-1-.52-1.91-1.36-2.45l-19.79-12.57-.02-3.01,15.14-.08c.78,0,1.51-.31,2.06-.87.55-.55.85-1.29.84-2.07l-.05-9.03c0-.78-.31-1.51-.87-2.06-.55-.54-1.28-.84-2.05-.84h-.02l-18.06.1c-.78,0-1.51.31-2.06.87-.55.55-.85,1.29-.84,2.07l.08,14.96-19.66,12.79c-.84.54-1.33,1.46-1.33,2.46v1.59s-15.13.08-15.13.08c-.78,0-1.51.31-2.06.87s-.85,1.29-.84,2.07l.23,33.08c-.33.13-.66.26-.97.38-1.53.61-3.03,1.25-4.52,1.92-.39.18-.77.37-1.16.55-2.22-2.7-4.02-5.5-5.38-8.36-1.05-2.21-1.84-4.46-2.36-6.73-.55-2.41-.81-4.84-.76-7.28.06-2.49.44-4.97,1.14-7.41.09-.3,2.4-7.81,2.4-7.81-3.01-.31-6.07-.54-9.14-.68-.02-1.23-.02-2.45.02-3.68.03-.94.09-1.89.18-2.83.04-.44.09-.88.14-1.31.02-.13.06-.45.07-.48.04-.26.08-.53.13-.79.17-.93.38-1.85.65-2.76.12-.39.25-.78.39-1.16.02-.06.15-.35.18-.43.08-.17.16-.34.24-.5.45-.86.98-1.68,1.52-2.47.16-.23.32-.46.49-.69,0,0,.22-.29.3-.4.3-.39.62-.77.95-1.14.62-.7,1.27-1.37,1.95-2,.3-.28.61-.54.92-.8.13-.11.26-.21.39-.31.08-.06.31-.23.35-.26.68-.49,1.39-.94,2.12-1.35.32-.18.65-.36.98-.52.2-.1.39-.19.59-.29.08-.04.44-.18.55-.23,1.36-.52,2.75-.94,4.19-1.21.27-.05.63-.17.92-.17.05,0,.09,0,.14,0,.2-.02.4-.04.6-.06.73-.06,1.45-.1,2.18-.1.71,0,1.43.02,2.14.08.35.03.7.06,1.05.1.07,0,.36.08.44.06.07.01.13.02.2.03,1.73.28,3.45.71,5.11,1.25.39.13.77.26,1.15.41.12.05.37.09.45.18-.11-.05-.23-.1-.34-.14.1.05.21.09.31.14.49.23.97.48,1.44.75.96.54,1.92,1.05,2.97,1.39,5.57,1.8,11.53-.3,17.06-1.31,1.02-.19,2.05-.36,3.08-.53v-5.76c-.79.14-1.59.29-2.39.43-2.27.41-4.51.87-6.76,1.37-.68.15-1.36.28-2.04.39-.23.04-.46.07-.68.11-.05,0-.28.04-.4.05-.44.05-.89.1-1.33.14-.92.07-1.85.11-2.77.06-.23-.01-.47-.04-.7-.05,0,0,0,0,0,0-.01,0-.02,0-.03,0-.32-.07-.65-.12-.97-.2-.27-.07-.53-.16-.79-.24,0,0-.01,0-.02,0-.4-.21-.8-.42-1.19-.64-1.24-.7-2.53-1.29-3.87-1.77-3.28-1.17-6.84-1.85-10.32-1.94-7.25-.19-14.28,2.52-19.43,7.65-3.35,3.33-6.07,7.45-7.14,12.09-.88,3.83-1.08,7.8-1.01,11.74-2.36.01-5.19.11-7.79.22.32-6.18.79-12.13,2.87-18.05.56-1.61.94-2.49,1.76-4.04.38-.71.78-1.41,1.22-2.08.19-.3.39-.59.59-.88.12-.16.23-.33.35-.49.04-.05.17-.21.23-.3.92-1.14,1.92-2.2,3.01-3.17.28-.25.56-.49.84-.72.14-.12.29-.23.43-.35-.1.08-.37.27.09-.06.6-.44,1.2-.86,1.83-1.26,1.25-.8,2.56-1.52,3.91-2.14.3-.14.61-.28.92-.41.07-.03.52-.21.6-.24.74-.29,1.49-.55,2.25-.8,2.93-.93,5.92-1.39,8.93-1.91,3.38-.58,6.58-1.6,9.29-3.77,2.41-1.94,4.12-4.6,6.49-6.59.43-.36.87-.7,1.64-1.21.69-.46,1.41-.88,2.14-1.28.74-.4,1.49-.77,2.25-1.11.13-.06.26-.11.39-.17.07-.03.09-.04.08-.04.03-.01.07-.03.15-.06.44-.18.87-.35,1.32-.51,2.8-1.05,5.68-1.86,8.57-2.64l.94-.2c4.85-1.04,10.18-1.47,15.83-1.29,10.79.36,21.49,2.86,31.83,5.28,9.33,2.18,18.98,4.44,28.75,5.15.91.07,1.83.1,2.76.1,10.17,0,20.86-3.97,28.24-10.42-1.37-1.12-2.87-2.33-4.51-3.64-6.41,5.15-15.83,8.67-23.21,8.5v-19.29c0-.71-.34-1.39-.92-1.81l-4.29-3.11v-10.72c0-1.23-1-2.23-2.23-2.23h-6.7c-1.23,0-2.23,1-2.23,2.23v2.49l-6.15-4.31c-.78-.56-1.83-.56-2.61,0l-8.43,6.1v-5.87c0-.71-.34-1.39-.92-1.81l-4.29-3.11v-10.72c0-1.23-1-2.23-2.23-2.23h-6.7c-1.23,0-2.23,1-2.23,2.23v2.49l-6.16-4.31c-.78-.56-1.83-.56-2.61,0l-21.6,15.64c-.48.35-.79.88-.88,1.46-15.86,5.91-29.36,7.14-41.26,3.74-14.94-4.26-27.8-13.33-39.47-22.5l-.5-.39c-10.61-8.34-20.64-16.21-32.54-21.94-1.43,1.58-3.08,2.71-4.82,3.89l-.06.04c12,5.43,22.56,13.5,32.78,21.3,12.75,9.74,25.94,19.81,41.92,24.7,12.86,3.94,27.63,2.97,43.92-2.83v15.26l4.46-1.62v-18.17l19.39-14.04,8.36,5.87c.68.49,1.57.56,2.33.18.75-.38,1.21-1.14,1.21-1.98v-4.58h2.24v9.63c0,.71.34,1.39.92,1.81l4.29,3.11v7.96l-8.72,6.31c-.58.42-.92,1.09-.92,1.8v10.47c-10.48-1.83-21.72-2.75-32.52-.54-.25,0-.5.02-.76.09-3.66,1-7.42,1.99-10.98,3.41-15.96,4.67-33.05,2.74-48.2-4.19-15.87-7.26-28.99-19.3-43.04-29.39-15.7-11.28-32.81-21.76-52.59-22.37-13.61-.42-27.27.45-40.89.5v5.52c12.7-.04,25.41-.68,38.11-.55,7.49.07,14.71.91,21.72,3.7,11.13,4.43,21.73,11.37,31.38,18.34,11.15,8.05,21.74,17.26,33.61,24.31-8.66-.45-17.33-.4-25.95.65-11.58,1.4-22.96,4.5-33.25,10.1-5.49,2.99-10.62,6.72-15.09,11.1l4,4c.92-.9,1.86-1.78,2.84-2.62.47-.41.96-.81,1.44-1.21.26-.21.53-.42.79-.63,0,0,.1-.08.17-.13.1-.07.37-.28.41-.31,2.12-1.59,4.35-3.05,6.65-4.38,2.35-1.36,4.77-2.58,7.25-3.68.28-.12.56-.25.85-.37.06-.03.42-.17.49-.2.67-.28,1.35-.54,2.04-.8,1.23-.46,2.47-.9,3.72-1.31,11.46-3.73,23.14-4.9,35.17-4.81,7.17.06,14.34.57,21.47,1.28.16.02.33,0,.49-.02,11.08,4.34,22.98,6.32,34.71,5.3-.71.79-1.39,1.6-2.12,2.38-.53.57-1.09,1.11-1.68,1.61-.02.02-.12.09-.18.14-.14.1-.27.19-.41.28-.36.23-.74.44-1.13.64-.03.01-.2.09-.3.15-.1.04-.3.13-.34.14-.36.13-.72.26-1.09.37-.79.24-1.6.42-2.4.58-3.11.62-6.23.97-9.28,1.87-3.09.91-6.12,2.18-8.89,3.82-5.95,3.52-10.36,8.71-13.02,15.06-2.93,6.99-3.56,14.59-3.96,22.1-1.34.07-2.18.13-2.18.13-2.21.2-4.4.45-6.56.75,0,0,2.22,7.49,2.29,7.8.49,2.27.71,4.56.66,6.86-.11,4.58-1.31,9.08-3.53,13.39-1.25,2.42-2.81,4.78-4.69,7.06-1.01,1.22-2.1,2.41-3.29,3.58-.36,0-.72,0-1.08,0-.62,0-1.24,0-1.87.01-1.7.04-3.4.1-5.11.22-1.07.07-2.14.17-3.21.28-1.18.11-2.35.25-3.52.4v-11.97h6.62c.96,0,4.19-.37,5.55-1.51.81-.67,1.97-1.87,2.01-1.91,2.64-2.59,4.1-6.04,4.1-9.73,0-1.24-1.01-2.25-2.25-2.25h-7.58c-3.07,0-6.04,1.05-8.45,2.96v-4.72c2.05.66,4.3.48,6.26-.51,1.97-1,3.4-2.7,4.05-4.83,2.74.62,5.55-.19,7.55-2.2,2.01-2.01,2.82-4.81,2.2-7.55,2.69-.83,4.71-2.92,5.45-5.67.74-2.76.04-5.6-1.88-7.67,1.92-2.07,2.62-4.92,1.88-7.68-.74-2.74-2.76-4.83-5.45-5.66.62-2.74-.19-5.55-2.2-7.55-2.01-2.01-4.81-2.82-7.56-2.19-.83-2.67-2.92-4.69-5.66-5.43-2.76-.74-5.6-.05-7.67,1.86-2.07-1.91-4.92-2.61-7.68-1.87-2.74.74-4.83,2.75-5.66,5.43-2.74-.62-5.55.19-7.56,2.2-2.01,2.01-2.82,4.81-2.2,7.55-2.69.83-4.72,2.92-5.45,5.66-.74,2.76-.04,5.6,1.88,7.68-1.92,2.07-2.62,4.92-1.88,7.67.74,2.74,2.76,4.84,5.45,5.67-.62,2.75.19,5.55,2.2,7.56,2.01,2.01,4.81,2.81,7.56,2.19.68,2.22,2.19,3.97,4.29,4.95,2.03.95,4.4,1.03,6.45.25v5.03c-2.45-2.03-5.5-3.14-8.67-3.14h-7.58c-1.24,0-2.25,1.01-2.25,2.25,0,3.69,1.46,7.14,4.07,9.69.08.11,2.08,2.69,5.18,3.28,1.99.38,7.19.27,9.25.21v12.8c-11.5,2.05-22.37,5.81-31.95,11.04.04-.47.07-.74.07-.76v-.26c0-.28,0-.98,0-2,1.07-.36,2.24-.77,3.4-1.22,3.06-1.15,6.12-2.55,7.17-3.04,1.47-.41,2.73-1.42,3.52-2.85l.06-.1c.67-1.31.89-2.88.62-4.44l-.05-.26c-.02-.1-.13-.63-.28-1.4l-.04-.16c-.06-.24-.11-.51-.18-.83-.14-.7-.32-1.57-.59-2.42-.22-.92-.5-1.76-.74-2.44-.09-.27-.18-.53-.26-.77l-.47-1.52-.06-.18c-.43-1.16-1.15-2.17-2.05-2.95-.26-.23-.53-.44-.82-.62l-.1-.06c-.19-.11-.39-.21-.58-.3-.03-.02-.06-.04-.1-.05-1.24-.56-2.57-.69-3.8-.37-1.13.11-4.43.44-7.68.99-1.14.19-2.37.42-3.56.67-.21-.37-.41-.71-.62-1.03-.21-.32-.37-.56-.48-.72-.1-.16-.15-.26-.16-.26l-.15-.21c-.16-.22-.58-.79-1.18-1.61.65-.92,1.35-1.94,2.04-2.99,1.8-2.73,3.45-5.66,4.01-6.67.94-1.19,1.37-2.75,1.17-4.38l-.02-.12c-.23-1.46-.97-2.85-2.11-3.95l-.19-.18c-.08-.07-.48-.43-1.05-.97l-.12-.11c-.19-.16-.39-.35-.63-.57-.56-.52-1.27-1.16-2.04-1.72l-3.82-2.85-.16-.11c-1.58-1.05-3.5-1.44-5.29-1.07-1.33.28-2.48.95-3.29,1.94-.85.75-3.32,2.96-5.63,5.32-.81.83-1.67,1.74-2.48,2.63-.38-.18-.75-.33-1.11-.47-.53-.19-.88-.33-1.01-.38l-1.2-.43c-.2-.08-.43-.16-.66-.24l-.42-.15c-.01-1.09-.05-2.33-.11-3.58-.07-1.73-.22-3.63-.45-5.67l-.24-2.03c.06-1.24-.31-2.47-1.07-3.53-1.04-1.46-2.72-2.47-4.62-2.77-.4-.08-1.08-.18-1.9-.24l-.46-.03c-.82-.06-1.82-.12-2.79-.18-1.47-.1-2.66-.15-3.69-.09l-1.44.04c-1.92.06-3.73.86-4.96,2.21-.9.98-1.42,2.18-1.51,3.42-.11.46-.28,1.21-.46,2.12-.34,1.68-.7,3.71-.97,5.56-.19,1.29-.35,2.54-.47,3.6-.09.02-.18.05-.28.07-.23.06-.44.11-.64.15l-1.11.26c-.36.06-.95.2-1.7.48-.24.08-.52.18-.82.28-.62-.82-1.38-1.81-2.22-2.84-2.04-2.55-4.32-5.01-5.11-5.86-.73-1.09-1.83-1.9-3.17-2.3-1.79-.54-3.78-.27-5.41.72l-4.1,2.42-4.06,2.93c-.49.35-.93.75-1.31,1.19v8.96c.65,1.43,1.59,3.45,2.61,5.39.53,1.02,1.13,2.12,1.73,3.18-.21.23-.4.44-.56.61-.44.46-.78.89-1.05,1.31l-.02-.02-.78,1.05c-.1.15-.23.31-.37.5l-.05.06c-.04.06-.09.11-.13.17-.44-.14-.91-.28-1.39-.42v8.19c.75.24,1.35.44,1.7.56l3.03,1.04,1.92-3.28c.35-.55.72-1.04,1.07-1.5.22-.29.42-.55.59-.78l.7-.94c.04-.05.08-.11.11-.16,0,0,.1-.15.32-.37l.05-.05c.51-.55,1.23-1.34,2.08-2.28l2.55-2.57-1.43-2.36-.33-.55c-.09-.15-.19-.31-.31-.52-.82-1.4-1.73-3.04-2.49-4.5-1.24-2.36-2.37-4.89-2.91-6.1l2.89-2.1,3.09-1.82c.93,1,2.79,3.04,4.45,5.12,1.4,1.72,2.55,3.28,3.12,4.07l.11.15c.16.22.31.42.43.6l1.73,2.47,2.82-1.04c.13-.05.27-.1.46-.18l.14-.05c1.21-.41,2.22-.75,2.94-1l.09-.03c.28-.1.44-.14.5-.15l1.27-.3c.25-.05.53-.12.83-.19l.1-.03c.52-.13,1.17-.29,1.78-.38l3.82-.48.25-3.18c.04-.5.26-3.16.69-6.05.26-1.73.59-3.61.91-5.18.12-.6.23-1.11.32-1.5l.76-.02c.71-.04,1.86.02,2.8.09,1.02.06,2.04.13,2.86.19l.32.02c.16.01.31.03.43.04l.18,1.62c.2,1.85.34,3.57.41,5.16.13,2.49.12,4.91.1,6.13l-.04,3.07,4.11,1.07c.35.09.67.17.95.25l.59.22c.2.07.38.14.61.22l1.07.38c.13.05.53.2,1.13.42.3.11.89.39,1.4.64.36.18.75.36,1.17.56.15.07.3.15.44.22l2.76,1.42,2.15-2.53c.17-.2.35-.41.53-.63,1.05-1.2,2.3-2.55,3.44-3.71,1.89-1.93,3.94-3.79,4.91-4.66l3.05,2.27c.45.33.92.76,1.43,1.22.26.24.51.46.73.65.14.13.27.26.39.37-.71,1.26-2.06,3.61-3.5,5.81-1.26,1.93-2.6,3.78-3.5,4.99l-1.85,2.48,2,2.39c.1.12.2.23.29.33l.05.05c1.01,1.38,1.71,2.35,2.25,3.03h0s.02.03.05.08c0,0,0,0-.01,0l.05.07s.05.07.09.13c.28.48.91,1.55,1.73,2.96.07.13.14.26.21.39.04.07.07.14.11.2.04.08.07.17.12.26l1.37,2.78,3.04-.7c1.18-.28,3.53-.8,6.01-1.21,2.63-.46,5.37-.77,6.69-.9.05.15.11.31.17.48l.91,2.94c.25,1.09.5,2.15.7,2.97.04.18.07.35.1.5-1.31.6-3.79,1.71-6.25,2.63-2.15.82-4.32,1.53-5.77,1.97l-2.95.92.21,3.11c.01.15.03.3.04.44v.07c0,1.71.01,2.91.04,3.78h0s-.17,1.7-.42,4.18v.05c-.04.15-.07.3-.1.47l-.32,1.89c-2.1,1.47-4.12,3.02-6.03,4.64,0,0-5.45,3.36-11.69,5.89-16.42-2.95-38.23-2.9-55.97,3.03l.41-.26c-.37-.62-.96-1.63-1.69-2.9l-.02-.05c-.08-.18-.17-.36-.26-.52l-1.41-2.66-2.93.68v15.32c19.94-10.39,49.58-9.46,67.21-4.98ZM781.88,169.62l.2,27.42c-4.08-1.11-8.19-2.01-12.21-2.68l-.21-24.67,12.22-.07ZM747.71,192.89c-2.32-.07-4.66-.07-7-.01l-.05-9.02c-.02-2.85,2.29-5.18,5.14-5.2,2.85-.02,5.18,2.29,5.2,5.14l.05,9.03c-1.12,0-2.23.02-3.34.06ZM760.63,135.13l.02,3.19-12.22.07-.02-3.19,12.22-.07ZM745.59,152.32l18.21,11.57.23,29.65c-1.68-.2-3.34-.35-4.96-.46-1.52-.1-3.05-.16-4.57-.2l-.05-9.09c-.03-4.75-3.91-8.6-8.66-8.57-4.75.03-8.6,3.91-8.57,8.66l.05,9.15c-.31.02-.61.03-.92.05-2.9.19-5.77.51-8.61.92l-.23-29.91,18.08-11.76ZM721.7,169.95l.2,25.04c-.35.07-.7.13-1.04.21-4.15.86-7.92,1.91-11.18,2.95l-.2-28.13,12.22-.07ZM769.22,95.92l19.38-14.04,8.37,5.87c.68.49,1.57.56,2.33.18.75-.38,1.21-1.14,1.21-1.98v-4.57h2.24v9.63c0,.71.34,1.39.92,1.81l4.29,3.11v17.76c-9.17-1.04-18.2-2.97-26.64-4.92-3.82-.89-7.88-1.83-12.1-2.67v-10.17ZM620.66,242.01c-2.21-1.57-4.49-3.09-6.81-4.54,1.26-1.12,2.74-2.24,4.44-3.36,13.57-8.99,39.83-17.76,58.18-19.87.69.15,1.38.3,2.07.47,2.88.69,5.7,1.49,8.46,2.41.21.07.41.14.62.21-20.19,1.87-47.33,11.25-61.32,20.41-1.54,1.01-2.93,2.02-4.13,3.01-.2.16-.88.73-1.51,1.25ZM700.34,222.71c3.05,1.56,5.96,3.28,8.71,5.14-20.38-.9-54.3,8.21-70.44,17.96-1.63.98-3.09,1.96-4.35,2.94-.05.04-1.59,1.21-2.59,1.98-1.82-1.61-3.75-3.22-5.76-4.8.18-.14.32-.26.33-.27,1.36-1.13,3.03-2.3,4.93-3.46,14.85-9.16,49.74-20.21,69.18-19.48ZM658.6,201.33c1.46-2.21,2.67-4.49,3.66-6.81,1.87-4.41,2.89-8.99,3-13.67.07-2.92-.23-5.82-.86-8.7,4.95-.39,9.98-.53,15.04-.41,1.15.03,2.31.07,3.46.12-.76,2.84-1.2,5.73-1.26,8.65-.09,3.74.41,7.45,1.46,11.08.66,2.27,1.53,4.5,2.61,6.7.19.39.39.79.6,1.18,1.25,2.35,2.76,4.65,4.5,6.89-1.54.86-3.05,1.75-4.52,2.7-.14.09-.29.18-.43.27-.86-.26-1.73-.5-2.61-.74-4.33-1.17-8.78-2.09-13.32-2.74-2.84-.41-5.71-.72-8.6-.92-1.73-.12-3.46-.18-5.19-.21.88-1.12,1.7-2.25,2.46-3.41ZM640.34,182.75h5.05c-1.02,4.01-4.67,6.88-8.84,6.88h-4.66v-1.18c1.41-3.46,4.72-5.69,8.45-5.69ZM637.14,169.89c-.34.83-1.03,1.44-1.89,1.68l-.12.03c-.88.24-1.8.05-2.53-.51-.72-.56-1.14-1.39-1.14-2.3v-4.86c1.05-.17,2.09-.45,3.08-.83l2.43,4.21c.46.79.52,1.73.17,2.57ZM646.11,165.24l-.09.09c-.64.63-1.52.93-2.42.81-.91-.12-1.69-.64-2.14-1.43l-2.43-4.21c.82-.67,1.58-1.43,2.25-2.25l4.21,2.43c.79.45,1.3,1.23,1.42,2.14.12.9-.18,1.78-.81,2.42ZM652.39,154.34l-.03.13c-.23.86-.84,1.55-1.68,1.89-.82.34-1.73.29-2.52-.14l-4.26-2.46c.38-.99.65-2.03.83-3.08h4.86c.91,0,1.74.42,2.3,1.14.56.73.74,1.65.51,2.52ZM648.07,140.02l.07-.07c.78-.44,1.71-.49,2.54-.15.83.34,1.45,1.03,1.68,1.89l.03.12c.23.88.05,1.8-.51,2.53-.56.72-1.39,1.14-2.3,1.14h-4.86c-.17-1.05-.45-2.09-.83-3.08l4.12-2.38h.05ZM641.47,131.44c.45-.79,1.23-1.31,2.14-1.43.9-.12,1.78.18,2.42.81l.09.09c.63.64.93,1.52.81,2.42-.12.9-.64,1.68-1.42,2.14l-4.21,2.43c-.67-.82-1.43-1.58-2.25-2.25l2.43-4.21ZM631.46,127.36c0-.9.41-1.73,1.12-2.28.73-.56,1.65-.74,2.54-.51l.12.03c.86.23,1.55.84,1.89,1.67.35.84.28,1.77-.17,2.55l-2.43,4.21c-1-.38-2.03-.65-3.08-.83v-4.86ZM620.58,126.28c.34-.83,1.03-1.44,1.89-1.67l.12-.03c.89-.24,1.82-.05,2.54.51.71.55,1.12,1.38,1.12,2.28v4.86c-1.05.17-2.08.45-3.08.83l-2.43-4.21c-.45-.79-.52-1.72-.17-2.55ZM611.6,130.91l.09-.09c.64-.63,1.52-.93,2.42-.81.91.12,1.68.64,2.14,1.43l2.43,4.21c-.82.67-1.58,1.43-2.25,2.25l-4.21-2.43c-.79-.45-1.31-1.23-1.43-2.14-.12-.9.18-1.78.81-2.42ZM605.33,141.81l.03-.12c.23-.86.84-1.55,1.68-1.89.85-.35,1.79-.29,2.58.17l4.2,2.43c-.38.99-.65,2.03-.83,3.08h-4.86c-.91,0-1.74-.41-2.3-1.14-.56-.73-.74-1.65-.51-2.53ZM609.61,156.19c-.79.46-1.73.52-2.58.17-.83-.34-1.45-1.03-1.68-1.89l-.03-.12c-.23-.88-.05-1.8.51-2.53.56-.72,1.39-1.14,2.3-1.14h4.86c.17,1.05.45,2.09.83,3.08l-4.21,2.43h0ZM616.25,164.72c-.45.79-1.23,1.31-2.14,1.43-.9.12-1.78-.18-2.42-.81l-.09-.09c-.63-.64-.93-1.52-.81-2.42.12-.91.64-1.69,1.43-2.14l4.21-2.43c.67.82,1.43,1.58,2.25,2.25l-2.43,4.21ZM617.99,148.08c0-6,4.88-10.87,10.87-10.87s10.87,4.88,10.87,10.87-4.88,10.87-10.87,10.87-10.87-4.88-10.87-10.87ZM625.12,171.1c-.73.56-1.65.74-2.53.51l-.12-.03c-.86-.23-1.55-.84-1.89-1.68-.35-.85-.29-1.79.17-2.58l2.43-4.21c.99.38,2.03.65,3.08.83v4.86c0,.91-.41,1.74-1.14,2.3ZM621.38,189.63c-4.17,0-7.82-2.87-8.84-6.87h5.05c3.96,0,7.43,2.53,8.67,6.29v.59h-4.88ZM600.42,222.3c9.3-4.66,19.8-7.92,30.87-9.48,2.57-.36,5.18-.64,7.8-.81.2-.01.44-.03.71-.04,2.36-.11,7.05-.15,9.93-.17,1.47,0,2.47-.01,2.47-.01,1.25-.02,2.5-.01,3.76.01-16.17,4.29-33.07,11.17-42.97,18.23-1.63,1.16-3.07,2.33-4.28,3.49-.2.19-.39.38-.58.58-5.2-2.9-10.51-5.4-15.67-7.28,2.53-1.63,5.19-3.14,7.95-4.53ZM565.92,486.15l-2.99,3.88c-2.91-.88-6.14-2.72-8.56-4.28l4.5-5.85,2.82-3.67c-.55-.34-3.02-2.37-3.6-2.85-9.23-7.46-27.76-18-41.26-19.89-.04,0-.07-.01-.1-.02-1.75-.24-8.35-.83-10.1-.96l-.2,7.57-.29,2.9v4.79l.22-.37c2.11.24,4.22.56,6.32.99,14.05,2.83,27.04,9.5,35.18,18.33.32.35,1.52,1.37,1.52,1.37,3.08,2.74,7.8,5.09,12.8,6.28-1.47,5.59-2.91,7.92-5.54,10.42-.96-1.16-1.99-2.28-3.3-3.13-3.58-2.34-7.74-3.19-11.5-2.66-.06,0-6.52-.17-9.99-1.61-3.88-1.62-8.04-4.93-10.91-8.38-1.8-2.17-3.11-4.91-5.5-6.72-2.81-2.13-6.1-3.25-9.31-3.41v4.32c2.09.09,4.09.68,6.22,1.92,1.38.8,5.14,6.24,6.78,8.67.12.17,5.79,5.33,8.97,6.72,3.92,1.71,12.06,3.2,14.14,2.84.02,0,.05,0,.07,0h0c.22-.03.44-.05.66-.09h0c2.51-.27,4.88.13,7.5,1.42.6.3,1.68,1.38,2.87,2.71-.06.03,2.7,3.6,2.93,3.47.03-.02.06-.03.08-.05,0,0,.53-.25.74-.44,1.31-.42,8.61-9.61,9.68-15.22.03.01.29-1.32.29-1.32.11-.55.39-3.04.39-3.04-.8-.05-1.61-.14-2.42-.27l2.24-2.9,1.87-2.42,2.2-2.66-10.76-2.03,5.32,5.67ZM514.04,464.19c-1.6-.32-3.21-.59-4.81-.81l4.53-5.89c.79.08,1.58.18,2.36.29,1.9.26,3.91.72,5.98,1.31l-4.7,5.87c-1.13-.29-2.25-.54-3.36-.77ZM521.23,466.04l4.6-5.75c3.28,1.17,6.65,2.64,9.94,4.26l-4.34,5.43c-3.32-1.55-6.76-2.88-10.19-3.95ZM534.78,471.65l4.3-5.38c2.3,1.23,4.52,2.52,6.62,3.82l-4.35,5.44c-2.08-1.38-4.29-2.68-6.57-3.88ZM544.35,477.64l4.45-5.57c2.52,1.68,4.76,3.32,6.58,4.82l-4.78,6.22c-1.85-1.92-3.95-3.75-6.26-5.47ZM740.46,366.18c-1.97.44-3.9,1.04-5.84,1.59-1.33.38-2.65.72-4.01.96,0,0,0,0-.02,0-.15.01-.3.03-.45.04-.34.02-.68.04-1.02.04-.72,0-1.42-.06-2.14-.13.43.04-.62-.09-.8-.12-.44-.08-.88-.16-1.32-.26-1.13-.24-2.25-.51-3.36-.81-1.84-.49-3.67-1.07-5.45-1.73-.9-.34-1.8-.69-2.69-1.06-.19-.08-.37-.16-.56-.23-.1-.04-.15-.06-.18-.08-.05-.02-.11-.05-.16-.07-.47-.2-.93-.4-1.4-.6-.86-.36-1.72-.72-2.58-1.08l3.4-52.14c-1.57.41-3.15.62-4.69.62-.29,0-.56-.02-.84-.03l-1.51,24.03-4.94-1.25,5.78-22.81c-2.05-.18-3.83-.71-5.32-1.37l-5.78,22.83-4.94-1.25,10.11-21.86c-2.41-1.17-3.98-2.6-4.57-3.18l-25.58,55.6c-.5,1.01-.89,1.85-1.39,2.86-.53.08-1.06.12-1.75.16-1.11.07-2.23.06-3.34,0-.51-.03-.92-.06-1.29-.1-.63-.06-1.15-.15-1.88-.28-2.42-.45-4.75-1.19-7.04-2.08-.11-.04-.18-.07-.23-.09-.05-.02-.13-.06-.23-.1-.19-.08-.38-.17-.57-.25-.56-.25-1.12-.52-1.67-.8-1.11-.56-2.19-1.15-3.25-1.79-2.13-1.28-4.12-2.75-6.15-4.17-4.33-3.02-9.01-5.09-14.35-5.32-5.1-.21-9.84,1.71-14.73,2.84-1.73.4-3.47.77-5.22,1.06-.39.07-.79.12-1.18.18-.01,0-.02,0-.03,0-.02,0-.05,0-.08,0-.21.02-.43.05-.64.07-.85.09-1.69.16-2.54.2-1.85.08-3.69,0-5.54-.19-.03,0-.05,0-.07,0-.01,0-.03,0-.04,0-.29-.05-.58-.09-.87-.14,0,0,0,0-.01,0,6.59-8.03,10.52-17.09,11.54-26.51.05.01.18-2.19.18-2.19.06-.92.09-1.83.09-2.76h-.09v-2.23c-1.64.11-3.32.12-5.01-.01-2.96-.23-6.38-1.29-9.62-2.61l75.18-40.89-6.36,12.06c-.58,1.06-.19,2.4.88,2.98,0,0,0,0,0,0l.96.53c2.66,1.45,3.64,4.78,2.19,7.44-1.45,2.66-4.78,3.64-7.44,2.19-2.66-1.45-3.64-4.78-2.19-7.44l-3.85-2.1c-1.44,2.66-1.57,5.82-.36,8.59l-21.36,3.37-1.47-.8c-1.06-.58-2.4-.19-2.98.87,0,0,0,0,0,0l-14.7,26.97c-.58,1.06-.19,2.4.88,2.98,0,0,0,0,0,0l41.52,22.5c1.06.58,2.4.19,2.98-.88h0s14.7-26.97,14.7-26.97c.58-1.06.19-2.4-.88-2.98,0,0,0,0,0,0l-3.37-1.83-5.95-17.27c5.43-.16,9.71-4.7,9.55-10.13-.09-3.12-1.66-6.01-4.22-7.79l9.18-16.48.15-.08-2.56-9.27-96.65,34.26.15-.27,3.53-6.52c-1.11-.55-1.77-.91-1.77-.91-1.35-1.02-2.76-1.99-4.19-2.94-4.2-2.78-8.75-5.23-13.55-7.34l3.78-6.93,3.39-6.22,4.03-6.87-23.93-1.52,13.14,11.63-4.48,8.23c-11.68-4.52-24.7-7.05-38.11-7.21-.05,0-.11,0-.16,0-2.67-.03-5.34.05-8,.21l-4.02,7.42-.08.14v16.95c4.74-.27,9.57-.24,14.37.12,21.67,1.66,42.48,9.74,56.43,22.31.55.49,2.55,1.9,2.55,1.9,5.16,3.79,12.7,6.61,20.45,7.49-1.49,12.31-4.44,17.06-11.67,24.75-1.03-.41-1.99-.85-3.2-1.45-2.53-1.25-4.96-2.69-7.34-4.22-9.74-7.97-20.93-13.89-32.91-17.73-9.45-3.03-19.33-4.75-29.22-5.41-3.15-.21-6.31-.29-9.47-.27v5.66c2.63-.02,5.27.04,7.9.18,1.96.11,3.92.25,5.87.45,1.11.11,2.21.24,3.31.38.24.03.48.06.72.09-.77-.1.1.01.3.04.61.09,1.21.18,1.81.27,5.01.79,9.98,1.88,14.85,3.32,2.69.79,5.36,1.69,7.98,2.7.67.25,1.33.52,1.99.79.27.11.53.22.79.33.06.03.13.05.15.06.25.11.5.21.75.32,1.35.59,2.68,1.21,4,1.86,3.08,1.52,6.08,3.2,8.97,5.04,3.17,2.02,5.95,4.04,8.66,6.29.03.03.07.05.11.07.14.13.3.26.47.37,7.28,4.7,15.3,8.52,24.08,8.93,3.54.16,7.09-.27,10.57-.92,1.85-.35,3.69-.76,5.51-1.22,2.53-.64,4.99-1.51,7.56-1.99,4.34-.81,8.93.21,12.86,2.6,2.04,1.24,3.93,2.69,5.9,4.04,2.04,1.4,4.16,2.67,6.38,3.76,4.59,2.27,9.47,3.82,14.58,4.27,4.41.39,8.63-.4,12.82-1.57.86-.24,1.71-.49,2.57-.76,2.18-.67,4.39-1.24,6.59-1.86.46-.13.92-.26,1.38-.38.2-.05.4-.11.59-.16,1-.27,1.99-.52,3.01-.71.36-.07.71-.12,1.07-.18.12-.02.31-.05.36-.05.31-.04.62-.06.93-.09.19-.01.38-.02.56-.03.9-.05,1.79-.06,2.69-.02.61.03,1.21.08,1.81.16.11.02.28.04.34.05.34.06.68.12,1.02.18,1.49.3,2.95.72,4.39,1.22.13.05.26.1.39.15.93.36,1.86.72,2.79,1.1.45.18.9.37,1.35.56.17.07.33.14.5.21.09.04.4.17.46.19.09.04.17.07.26.11,1.66.71,3.31,1.42,4.98,2.09,3.58,1.42,7.3,2.55,11.09,3.27,3.23.61,6.32.71,9.53-.05,1.59-.37,3.15-.86,4.72-1.3.98-.27,1.97-.54,2.96-.79.35-.09.71-.15,1.05-.23.23-.01.46-.03.7-.04.39,0,.78,0,1.17.03.12,0,.24.02.36.04-.09,0,.37.05.45.07.93.17,1.82.45,2.71.77,2.44-.65,4.83-1.32,7.17-2.01-2.43-2.34-5.74-3.84-9.05-4.33-1.85-.27-3.64-.31-5.48.1ZM654.77,305.44l5.87,15.32-23.65-12.79,17.78-2.54ZM666.25,328.8l-12.6,23.12-37.67-20.4,12.6-23.12,37.67,20.4ZM665.14,271.81l-28.28,15.38-8.37-2.39,36.65-12.99ZM621.33,288.51l8.6,2.46-11.37,6.18,2.77-8.64ZM615.2,289.52l-3.09,9.64-12.38-4.15,15.47-5.49ZM566.44,300.94l-.91.32c-13.34-7.18-29.27-11.83-43.79-12.94-4.3-.33-8.61-.39-12.87-.24l5.66-10.45c1.2-.03,2.41-.04,3.61-.03,19.63.22,38.31,5.76,52.6,15.4l-4.3,7.93ZM583.49,313.14c-1.86-1.04-3.03-1.78-3.03-1.78-2.53-2.19-5.31-4.25-8.28-6.18l.28-.52,15.55-5.51-4.52,13.99ZM593.91,298.89l13.27,4.45-17.85,9.71,4.58-14.15ZM687.71,359.56c-2.32.47-4.58,1.13-6.88,1.72-1.92.48-3.81,1.09-5.71,1.67l12.16-26.61,5.93,1.5-5.5,21.72ZM703.13,360.55c-3.1-1.01-6.34-1.59-9.6-1.6l5.01-19.76,5.93,1.5-1.34,19.86ZM761.08,330.71c2.16-1.05,3.93-.91,5.04-.61,1.26.35,2.62-.08,3.46-1.1.79-.96.98-2.26.5-3.4-.77-1.84-1.93-3.3-3.45-4.35-1.75-1.2-3.89-1.77-6.35-1.7-4.99-5.8-11.32-10.31-15.55-11.04-.26-.06-2.58-.54-4.33-.33-4.72.35-9.1,2.09-12.67,5.05-3.62,2.99-6.3,7.17-7.74,12.06h0c-.38,1.06-.97,3.69-1.08,5.48-.47,4.46.37,9.26,2.53,14.29l1.17,2.47c2.46,4.78,6.01,9.2,9.5,11.82,2.7,2.03,4.86,2.66,6.5,2.66.86,0,1.57-.17,2.14-.4,3.43-1.38,4.89-6.38,4.01-13.71h-.01c-.11-1.69-1.07-7.63-1.7-9.74-.55-1.84-.94-3.6-1.14-5.25-.01-.07-.92-7.05,2.56-8.19,3.23-.94,5.65.14,6.83,1.76-.29.67-.62,1.59-.81,2.66-.37,2.16-.23,5.37,2.53,8.37.94,1.03,2.39,1.35,3.69.84,1.3-.52,2.12-1.76,2.1-3.16-.04-2.21.74-3.71,2.3-4.47ZM739.06,357.36c-.67.26-2.23-.16-4.23-1.66-2.7-2.03-5.5-5.41-7.61-9.18,2.53-2.62,6.52-5.14,12.16-4.27.39,2.08.76,5.18.84,5.87v.07c.66,4.4-.4,8.66-1.16,9.17ZM728.85,335.39c.59-.45,1.36-.73,1.68-.82.3-.08,1.08-.21,1.81-.12.09.73.15,2.12-.17,4.02-.4.14-.8.29-1.19.46-1.26-1.56-1.88-2.84-2.13-3.54ZM754.88,331.23c-.15-1.92.81-3.44.87-3.54.42-.64.49-1.44.19-2.14-.91-2.15-2.63-3.87-4.85-4.85-2.38-1.06-5.13-1.18-7.95-.35-2.02.59-3.57,1.86-4.61,3.77-1.67,3.09-1.8,7.81-.39,13.43-.44-.02-.86-.02-1.28,0,.17-2.12-.03-3.97-.25-4.81-.31-1.16-.96-1.95-1.94-2.34-2.4-.96-5.04-.29-5.31-.21-.29.07-2.92.79-4.54,2.82-1.65,2.07.2,4.78.81,5.67.21.31.5.82.81,1.35.21.37.42.74.64,1.1-.64.41-1.27.82-1.85,1.23-1.2-3.04-2.24-7.03-1.81-11.11v-.1c.04-.81.45-2.67.68-3.67l.11-.48c.02-.06.04-.12.06-.19,1.17-4.13,3.37-7.62,6.35-10.08,2.51-2.08,5.87-3.4,10.25-4.03,5.97-.86,14,7.35,16.55,10.54.48.66,1.28,1.01,2.09.92,2.53-.29,4.06.36,5,1.17-.02,0-.04,0-.06,0-1.54,0-3.36.32-5.35,1.29-2.02.98-3.45,2.56-4.21,4.61ZM820.88,319.93c-.35-.07-.83-.18-1.13-.26-1.36-1.31-5.35-7.41-8.59-12.34-3.98-6.06-8.39-12.8-12.15-17.6,2.73-2.06,4.04-5.84,3.63-10.81,0-.11-1.16-11.45-6-12.07-1.33-.17-2.97.51-3.64,2.41l-.05.15c-1.01,2.88-2.36,6.7-5.2,8.74-.89-.46-1.78-.76-2.65-.93,1.88-3.89,2.34-8.76-1.37-13.65,0,0,0,0,0,0-.85-1.38-1.97-1.64-2.76-1.62-1.04.03-2.01.65-2.5,1.57-.33.62-.58,1.26-.82,1.87-.87,2.2-1.76,4.47-6.81,6.92-4.36,2.11-6.91,5.53-7.47,9.7-1.74-.96-3.54-1.67-5.09-2.01-2.97-.65-6.27.1-8.83,2.02-1.78,1.33-2.82,2.97-2.93,4.61-.15,2.25,1.49,4.49,3.76,6.48-2.54.49-5.01.87-7.43,1.18-1.34,2.28-2.91,4.38-4.68,6.27,6.23-.45,12.86-1.51,19.84-3.21,1.15-.28,2.01-1.22,2.18-2.39.17-1.17-.38-2.32-1.4-2.92-2.74-1.61-5.53-3.84-6.33-5,.69-.71,2.59-1.83,4.58-1.39,2.67.58,6.28,2.85,7.44,4.66l.13.2c1.54,2.42,3.46,1.7,4.01,1.42.1-.05,2.33-1.21,1.31-3.88-2.87-7.48,1.88-9.78,3.44-10.54,3.7-1.79,5.89-3.73,7.29-5.54-.33,3.91-3.99,6.93-4.56,7.38-1.25.97-1.48,2.76-.53,4.02.95,1.26,2.76,1.52,4.03.58.31-.23,3.14-2.2,5.95-.39,1.52,1.16,2.84.81,3.49.5,3.61-1.71,5.83-4.75,7.31-7.71.54,2.24.82,4.91.24,6.94-.45,1.59-1.24,2.01-1.88,2.2-.38.11-2.31.78-2.83,2.59-.29,1.01-.05,2.09.64,2.88,3.86,4.41,9.12,12.44,13.77,19.53,6.38,9.73,8.78,13.23,10.6,14.25.66.37,1.43.55,2.74.83.35.08.86.18,1.25.28.6,1.96-.44,5.52-1.63,8.08l-.34.09c-.65.16-1.22.54-1.62,1.08-1.49,2.01-4.01,5.18-4.93,5.96-1.87,1.58-4.15.66-7.67-1.03-1.39-.67-2.71-1.3-4.03-1.62-5.84-1.43-12.97-2.65-21.58-.87-3.96.82-7.99,2.25-11.97,4.25-4.74,2.38-7.34,13.13-8.25,17.64-.31,1.57.7,3.09,2.27,3.4.19.04.38.06.57.06,1.35,0,2.56-.95,2.83-2.33,1.27-6.33,3.73-12.81,5.17-13.6,3.54-1.77,7.09-3.04,10.55-3.76,7.48-1.55,13.82-.46,19.03.82.73.18,1.79.69,2.9,1.22,3.6,1.73,9.05,4.34,13.91.23,1.43-1.21,3.97-4.46,5.22-6.1l.64-.16c.78-.2,1.44-.71,1.83-1.41.56-1.02,5.34-10.1,1.67-15.74-.89-1.36-2.53-1.72-4.6-2.16ZM831.95,256.44c-8.91,0-17.16,3.72-22.66,10.08-.06,0-.12-.02-.18-.03l-.04.3c-.61.72-1.2,1.47-1.73,2.26l1.04,2.52c7.08,1.02,14.39,8.56,14.47,8.64l1.08,1.12,1.5-.44c1.41-.41,3.49-.02,5.58.83l-7.87,14.52c-1.03-.05-2.05-.09-3.08-.11-.62-.01-1.24-.01-1.87-.01-1.47,0-2.93,0-4.39.05-1.7-.05-3.41-.07-5.12-.05l5.36,7.09c2.89.02,7.57.06,9.93.17.27.01.51.02.71.04,2.63.18,5.23.45,7.8.81,6.3.89,12.41,2.33,18.22,4.26,1.37-2.2,2.87-4.07,4.25-6.01-8.26-2.92-17.09-4.9-26.21-5.8l6.71-12.39c1.34,1.04,2.38,2.2,2.81,3.31l.73,2.52,2.47-.72c2.42-.71,6.9.94,11.21,5.2,0,.01-.01.03-.02.04l.19.12c.65.66,1.3,1.38,1.94,2.16l2.2.5c2.68-4.18,4.1-8.98,4.1-13.87,0-14.94-13.06-27.1-29.12-27.1ZM854.97,289.71c-4.2-3.71-8.82-5.77-12.73-5.6-3.11-5-11.02-9.03-16.69-8.45-1.82-1.72-5.92-5.25-10.77-7.45,4.46-4.22,10.59-6.64,17.18-6.64,13.23,0,23.99,9.85,23.99,21.96,0,2.1-.34,4.17-.97,6.17ZM629.38,333.76l8.4-15.41-3.85-2.1-8.4,15.41,3.85,2.1ZM875.17,220.55c-.52.55-.97,1.06-1.22,1.36-1.17,1.36-3.9,3.95-5.38,5.3l-.71.65c-1.36,1.26-3.19,2-5.1,2.71-4.86,1.81-7.88,5.36-8.99,10.57-.67-2.54-1.1-5.19-.86-7.12.55-4.6,2.98-8.51,5.54-12.64.63-1.02,1.26-2.04,1.87-3.07.5-.85.48-1.91-.06-2.74-.54-.83-1.49-1.29-2.48-1.17-5.95.67-11.07,3.04-15.72,5.91.86-3,3.05-5.5,5.46-8.26.33-.38.66-.75.98-1.13.82-.95.84-2.35.06-3.33-.78-.98-2.15-1.26-3.26-.67-3.62,1.92-7.09,3.68-10.61,5.36-2.94,1.41-6.08,2.61-9.03,3.72-2.35.88-4.49,2.08-6.52,3.36.47-1.07,1.1-2.11,1.89-3.13,1.42-1.83,3.15-3.42,4.97-5.11.87-.8,1.77-1.63,2.64-2.5,3.7-3.67,6.74-7.5,9.29-11.7.41-.68.49-1.51.22-2.26-.27-.75-.87-1.33-1.63-1.58-2.64-.87-5.34-1.22-8.28-1.06-1.55.08-2.66.87-3.47,1.45l-.24.17c-.08.06-.16.11-.24.17.06-.18.11-.35.16-.52.54-1.81,1.58-3.31,3.08-4.47.17-.13.33-.29.46-.46,1.05-1.34.68-2.57.48-3.04-.2-.47-.86-1.58-2.54-1.73-.32-.03-.64,0-.95.09-2.07.6-4.19.67-6.29.22-4.19-.9-8.51-1-13.16-.3.22-.17.42-.36.62-.55,2.73-2.63,6.1-3.94,10.65-5.2,2.76-.76,5.2-2.04,7.57-3.28.8-.42,1.61-.84,2.42-1.24,1.86-.91,2.15-2.26,2.16-2.99.01-.89-.36-2.16-2.17-3.1-2.41-1.26-4.91-1.33-7.27-1.17,1.14-.6,2.23-1.53,3.17-2.93.75-1.11,2.19-1.6,4.48-2.32l.27-.08c.96-.3,1.67-1.13,1.8-2.13.14-1-.31-1.99-1.16-2.54-.41-.27-.81-.52-1.2-.77-.76-.49-1.49-.94-2.15-1.42-3.33-2.39-5.49-4.84-6.78-7.73-1.17-2.6-3.42-3.91-5.02-4.66-1.57-.74-3.18-1.31-4.79-1.75,3.33-.64,6.56-.52,9.92.76,4.34,1.65,8.54,3.7,12.49,6.11l.03.02c.34.28,1.39,1.12,2.91.82,1.1-.21,1.94-1.11,2.09-2.22.87-6.58-1.46-11.42-5.03-15.63,3.37.99,6.87,2.69,10.75,5.21,1.03.67,2.39.53,3.26-.34.87-.87,1.02-2.22.35-3.26-1.25-1.95-1.31-2.12-1.65-3.09-.16-.45-.36-1.03-.7-1.89-.41-1.04-.32-2.28-.22-3.71.05-.65.1-1.32.1-2.03.03-2.38,1.02-4.96,2.25-7.49-1.21-1.02-2.58-2.16-4.12-3.42-1.75,3.43-3.31,7.09-3.35,10.85,0,.55-.05,1.12-.09,1.72-.1,1.36-.2,2.85.11,4.42-4.84-2.24-9.35-3.26-14.06-3.22-1.08,0-2.04.68-2.42,1.69-.38,1.01-.1,2.15.7,2.86,4.49,4.02,8.09,7.65,8.91,12.56-3.36-1.86-6.86-3.48-10.45-4.85-8.37-3.17-15.9-.71-22.79,2.44-.94.43-1.54,1.37-1.53,2.4.01,1.03.63,1.96,1.58,2.37.92.39,1.8.52,2.39.6,3.9.53,7.68,1.15,11.14,2.79,1.4.67,2.13,1.27,2.49,2.08,1.6,3.58,4.12,6.58,7.9,9.4-1.03.62-1.98,1.43-2.73,2.55-.92,1.36-2.06,1.8-4.29,1.66-2.05-.51-3.09.68-3.44,1.22-.43.66-.99,2.03.18,3.78l.04.06c1.88,3.11,4.79,4.62,8.41,4.38-1.28.61-2.55,1.15-3.86,1.51-4.19,1.16-8.98,2.71-12.88,6.48-.78.75-1.9,1.19-3.32,1.3-.06,0-.13-.01-.2-.02-2.7-.28-3.63,1.19-3.95,2.1-.79,2.25.74,3.93,1.51,4.77,1.01,1.11,2.31,1.74,3.85,1.89,1.61.16,3.09-.09,4.36-.33,4.61-.87,8.8-.88,12.81-.02.94.2,1.88.33,2.82.38-.39.76-.71,1.56-.96,2.41-.7,2.32-1.58,3.42-3.16,3.91-1.9.59-2.34,1.98-2.43,2.55-.1.58-.15,2.07,1.54,3.33,2.43,1.81,4.9.7,6.09.16,1.84-.83,3.4-1.95,4.9-3.03.37-.27.74-.53,1.11-.79l.28-.2c.26-.18.65-.46.74-.49,1.01-.05,1.98-.03,2.92.06-1.88,2.66-4.02,5.17-6.48,7.62-.8.8-1.63,1.56-2.5,2.37-1.9,1.75-3.87,3.57-5.56,5.74-2.72,3.51-4.08,7.42-4.04,11.63,0,.77.35,1.49.95,1.98.59.49,1.37.69,2.13.56,1.19-.22,1.99-.77,2.51-1.14l.46-.31c2.86-1.93,5.56-3.74,8.58-4.88,3.06-1.15,6.32-2.4,9.45-3.9.33-.16.66-.32.99-.47-1.22,2.62-1.84,5.62-1.25,9.22.15.88.73,1.63,1.56,1.98.83.35,1.77.25,2.51-.27,4.11-2.88,7.89-5.16,11.89-6.55-2.26,3.76-4.33,7.74-4.9,12.51-.72,5.99,3.01,17.12,5.89,19.59.75.64,1.81.81,2.72.42.91-.39,1.52-1.27,1.58-2.26.14-2.7.4-5.28.77-7.9.58-4.09,2.4-6.49,5.89-7.79,2.33-.87,4.77-1.87,6.82-3.77l.69-.63c1-.91,2.13-1.94,3.16-3.04.56-.54,1.01-1,1.39-1.41-.26-2.1-.76-4.13-1.47-6.06ZM735.57,348.69c-.66-.38-1.43-.49-2.16-.29-.74.19-1.35.66-1.74,1.32-.38.66-.49,1.43-.29,2.16.19.74.66,1.35,1.32,1.74.44.26.93.39,1.43.39.24,0,.49-.03.73-.1.74-.19,1.35-.66,1.74-1.32.38-.66.49-1.43.29-2.16-.19-.74-.67-1.35-1.32-1.74ZM580.1,331.64c1.7,0,3.07-1.38,3.07-3.07s-1.38-3.07-3.07-3.07-3.07,1.38-3.07,3.07,1.38,3.07,3.07,3.07ZM543.49,405.96c-.44-.26-.59-.34-1.04-.59-1.21-.67-2.45-1.31-3.71-1.93.62-.03,1.2-.46,1.72-.96.64-.61,2.46-3.13,1.64-3.71-.8-.56-2.46.13-3.64.92-.16-1.24-.6-2.52-1.37-2.78-.95-.32-1.89,2.65-2,3.53-.06.45-.08.9,0,1.3-6.08-2.67-12.63-4.79-19.38-6.31.45-.33.74-.92.96-1.54.3-.84.79-3.91-.2-4.05-1.04-.15-2.34,1.45-3,2.76-.66-1.3-1.96-2.91-3-2.76-1,.14-.5,3.21-.2,4.05.06.16.12.32.19.48-1.44-.26-2.88-.49-4.32-.69v6.62c12.39,1.98,24.18,6.35,33.93,12l3.43-6.33ZM592.14,332.52c0-1.7-1.38-3.07-3.07-3.07s-3.07,1.38-3.07,3.07,1.38,3.07,3.07,3.07,3.07-1.38,3.07-3.07ZM552.02,511.57c-1.09-1.34-2.22-2.66-3.71-3.64-3.58-2.34-7.74-3.19-11.5-2.66-.06,0-6.52-.17-9.99-1.61-3.88-1.62-8.04-4.93-10.9-8.37-1.8-2.17-3.11-4.91-5.5-6.72-1.34-1.01-2.79-1.79-4.28-2.35v4.55c.39.19.79.39,1.19.62,1.38.8,5.14,6.24,6.78,8.67.12.17,5.79,5.33,8.97,6.72,3.92,1.71,12.06,3.19,14.14,2.84.02,0,.05,0,.07,0h0c.22-.03.44-.05.66-.09h0c2.51-.27,4.88.13,7.5,1.42.6.3,1.68,1.38,2.87,2.71-.06.03,2.7,3.6,2.93,3.47,1.26-.72,2.46-1.49,3.59-2.32-.18-.18-.36-.36-.53-.54-.8-.84-1.53-1.78-2.29-2.71ZM796.24,218.18c-.2-.94-.88-1.62-1.8-1.83-.31-.07-.44-.17-.58-.63-.12-.41-.27-.84-.59-1.17-1.2-1.27-2.45-2.54-3.63-3.72-.6-.6-1.58-.65-2.28-.11-.41.31-.65.75-.68,1.25-.04.52.16,1.02.54,1.41l.72.75c.78.8,1.56,1.6,2.35,2.39.1.1.17.22.24.38-.45.41-.71.97-.73,1.57-.02.63.25,1.25.73,1.7.46.42,1.01.69,1.64.8.56,1.42,1.13,2.84,1.71,4.26.13.3.4.64.8.67.5.04.99.06,1.53.09l1.58.08-.3-1.13c-.04-.18-.08-.33-.14-.48-.56-1.42-1.13-2.84-1.72-4.29.55-.53.76-1.23.59-1.98ZM721.03,101.18l2.78-.55-1.09-5.55-2.78.55c-2.54.5-5.27.87-8.09,1.1l-2.82.23.46,5.64,2.82-.23c3.04-.25,5.97-.65,8.72-1.19ZM810.38,246.57c1.78-.19,3.61-.52,5.26-.89l.06-.66c.18-2.1-.04-4.01-.27-5.25-.64-3.56-2.05-7.03-4.07-10.03-.46-.68-1.01-1.39-1.87-1.91-1.11-.66-2.27-.72-3.04-.76l-11.68-.57c-.77-.04-1.93-.09-3.1.46-.91.43-1.52,1.08-2.04,1.71-2.25,2.72-3.95,5.94-4.95,9.33.11.08.22.17.33.26.45.33.91.66,1.37.97.89.59,1.83,1.15,2.79,1.7.08-.43.13-.85.26-1.29.8-2.81,2.21-5.49,4.07-7.74.17-.21.27-.31.33-.37.17-.02.51,0,.7,0l11.67.57c.19.01.54.03.7.06.06.07.16.2.29.39,1.64,2.42,2.77,5.23,3.29,8.11.3,1.64.33,3.2.1,4.65l-.2,1.26ZM564.95,252.07c18.69,4.22,38.18,14.4,48.52,26.16l6.43-2.24c-10.83-13.65-32.49-25.38-53.54-30.13-18.58-4.86-41.47-3.36-60.22,5.07v7.19c18.28-10.1,40.96-10.71,58.82-6.05ZM677.64,97.34l2.29-5.17-2.59-1.15c-2.52-1.12-4.99-2.35-7.36-3.68l-2.47-1.38-2.77,4.94,2.47,1.38c2.52,1.41,5.16,2.73,7.84,3.92l2.59,1.15ZM700.51,102.66l.5-5.64-2.82-.25c-2.55-.23-5.23-.67-7.96-1.32l-2.75-.66-1.32,5.5,2.75.66c3,.72,5.95,1.21,8.78,1.46l2.82.25ZM546.41,226.73c7.2,0,13.35-5.39,14.3-12.55h0c.5-3.82-.51-7.61-2.86-10.67-2.35-3.06-5.74-5.02-9.55-5.52-3.84-.51-7.65.52-10.72,2.89-3.04,2.35-4.99,5.73-5.49,9.52-1.04,7.89,4.53,15.16,12.43,16.21.64.08,1.27.12,1.88.12ZM542.04,215.63c-.9-1.17-1.28-2.61-1.09-4.07.36-2.72,2.7-4.78,5.44-4.78.25,0,.49.02.74.05,1.45.19,2.74.94,3.64,2.1.9,1.17,1.28,2.61,1.09,4.06-.19,1.46-.95,2.76-2.13,3.66-1.16.89-2.59,1.27-4.03,1.08h0c-1.45-.19-2.75-.94-3.65-2.11ZM629.21,86.24v11.59s4.38,0,4.38,0v-8.26c-1.44-1.11-2.91-2.23-4.38-3.34ZM632.75,68.3c.87.67,2.17,1.64,3.86,2.87l2.28,1.67,3.34-4.57-2.28-1.67c-1.65-1.21-2.91-2.15-3.75-2.79-.95-.73-1.97-1.5-3.06-2.3l-2.28-1.67-3.35,4.57,2.28,1.67c1.05.77,2.03,1.51,2.95,2.22ZM657.5,85.97l3.19-4.67-6.58-4.5s-1.07-.76-2.69-1.92l-2.3-1.64-3.29,4.61,2.3,1.64c1.64,1.17,2.71,1.93,2.75,1.96l6.62,4.52ZM751.7,73.92v5.66h5.66v-5.66h-5.66ZM741.23,266.55s.45-7.65-7.16-12.03l-13.13,12.64c1.34,1.41,2.34,3.11,2.92,4.97l17.37-5.58ZM733.22,298.38l-12.72-13.21c-1.39,1.33-3.07,2.33-4.92,2.92l5.61,17.46s7.65.45,12.03-7.17ZM742.72,276.62l-18.28-.35c-.02.93-.14,1.86-.38,2.8-.25.98-.61,1.9-1.06,2.76l16.28,8.36s5.73-5.09,3.44-13.57ZM712.31,245.03l-.35,18.17c.96.02,1.93.15,2.87.38.97.25,1.89.61,2.74,1.06l8.31-16.17s-5.09-5.73-13.57-3.44ZM707.79,263.8l-5.55-17.28s-7.65-.45-12.03,7.17l12.61,13.1c1.4-1.36,3.09-2.38,4.97-2.99ZM689.37,297.54l13.2-12.71c-1.35-1.39-2.37-3.07-2.98-4.91l-17.39,5.59s-.45,7.65,7.17,12.03ZM720.93,275.94c0-5.09-4.12-9.21-9.21-9.21s-9.21,4.12-9.21,9.21,4.12,9.21,9.21,9.21,9.21-4.12,9.21-9.21ZM680.71,275.44l18.24.35c.01-.99.12-1.98.38-2.98.24-.93.58-1.8.99-2.63l-16.18-8.31s-5.73,5.09-3.44,13.57ZM697.6,303.65s.06.06.1.11c0,0,.02.02.03.03.05.05.11.11.18.17,0,0,0,0,.01.01.07.06.15.14.24.22.02.02.04.03.06.05.09.08.19.17.31.26.02.02.05.04.07.06.12.1.24.19.38.3,0,0,.01,0,.02.01.14.1.28.21.44.31.03.02.07.05.1.07.16.11.32.21.5.32.04.02.07.04.11.07.18.11.37.22.58.33,0,0,.01,0,.02.01.2.11.41.21.63.31.05.02.09.04.14.06.22.1.44.2.68.29.05.02.1.04.14.05.25.09.5.19.76.27,0,0,0,0,.01,0,.26.08.54.16.82.23.06.01.11.03.17.04.28.06.56.12.85.17.06,0,.11.02.17.03.31.05.62.09.94.11h0c.32.03.66.04.99.04.07,0,.14,0,.21,0,.27,0,.55,0,.83-.03,0,0,0,0,.01,0,.28-.02.57-.05.87-.09.09-.01.18-.02.26-.04.22-.03.44-.07.67-.11.09-.02.18-.03.28-.05.31-.06.62-.13.93-.22h0s0-.46,0-.46l.34-17.89c-.98-.02-1.96-.14-2.91-.39-.93-.24-1.81-.58-2.64-1l-7,13.62-1.37,2.67s.01.01.03.03c0,0,.01.01.02.02Z" style="fill: url(#Degradado_sin_nombre_121);"/>
</svg>